<svg xmlns="http://www.w3.org/2000/svg" viewBox="0 0 663.75 299.1"><defs><style>.cls-1,.cls-3,.cls-5{fill:none;stroke-miterlimit:10;}.cls-1,.cls-5{stroke:#6c2d7c;}.cls-1{stroke-width:2.33px;}.cls-2,.cls-6{fill:#fff;}.cls-3{stroke:#fff;stroke-width:17.48px;}.cls-4{fill:#6c2d7c;}.cls-5{stroke-width:16px;}.cls-6{font-size:25.12px;font-family:Helvetica;}.cls-10,.cls-7,.cls-8{font-family:Helvetica-Bold, Helvetica;font-weight:700;}.cls-8{fill:#f15b28;}.cls-10,.cls-9{fill:#67318d;}.cls-10{letter-spacing:0em;}</style></defs><g id="Layer_2" data-name="Layer 2"><g id="Layer_1-2" data-name="Layer 1"><circle class="cls-1" cx="390.97" cy="62.27" r="19.6"/><ellipse class="cls-1" cx="390.97" cy="62.27" rx="19.6" ry="10.69"/><ellipse class="cls-1" cx="390.97" cy="62.27" rx="10.77" ry="19.6"/><line class="cls-1" x1="390.97" y1="81.87" x2="390.97" y2="42.67"/><line class="cls-1" x1="371.36" y1="62.27" x2="410.57" y2="62.27"/><path class="cls-2" d="M281.89,109.63a47.37,47.37,0,0,1-30-84.24,47.36,47.36,0,0,1,63.22,3.39L321.32,35,282.85,73.35a8.75,8.75,0,0,1-12.36,0h0a8.75,8.75,0,0,1,0-12.37l25.16-25.1A29.89,29.89,0,0,0,260.15,83c11.62,12,31.28,11.71,43.1-.11l26.83-26.83,12.36,12.36L315.8,95.09A48.58,48.58,0,0,1,281.89,109.63Z"/><path class="cls-3" d="M336.26,62.27,363.57,35a38.63,38.63,0,0,1,54.62,0h0a38.61,38.61,0,0,1,0,54.62h0a38.63,38.63,0,0,1-54.62,0L368.2,85l1.57-1.56"/><path class="cls-4" d="M273.78,124.1a115.19,115.19,0,0,0,32.67-7.56A76.07,76.07,0,0,0,320.81,109a45.06,45.06,0,0,0,11.05-10.42l4.4-6.11,4.41,6.11a44.84,44.84,0,0,0,11,10.42,75.85,75.85,0,0,0,14.37,7.58,115,115,0,0,0,32.66,7.56,118.32,118.32,0,0,1-34.37-2,82.59,82.59,0,0,1-16.92-5.52,54.85,54.85,0,0,1-15.59-10.42h8.8a54.72,54.72,0,0,1-15.59,10.42,82.59,82.59,0,0,1-16.92,5.52A118.32,118.32,0,0,1,273.78,124.1Z"/><path class="cls-4" d="M398.74.44A115,115,0,0,0,366.08,8a75.32,75.32,0,0,0-14.37,7.59,44.62,44.62,0,0,0-11,10.41l-4.41,6.12L331.86,26a44.84,44.84,0,0,0-11.05-10.41A75.53,75.53,0,0,0,306.45,8,115.19,115.19,0,0,0,273.78.44a118.32,118.32,0,0,1,34.37,2A82.59,82.59,0,0,1,325.07,8a54.92,54.92,0,0,1,15.59,10.42h-8.8A55.06,55.06,0,0,1,347.45,8a82.59,82.59,0,0,1,16.92-5.52A118.32,118.32,0,0,1,398.74.44Z"/><circle class="cls-1" cx="460.79" cy="195.73" r="19.6"/><ellipse class="cls-1" cx="460.79" cy="195.73" rx="19.6" ry="10.69"/><ellipse class="cls-1" cx="460.79" cy="195.73" rx="10.77" ry="19.6"/><line class="cls-1" x1="460.79" y1="215.33" x2="460.79" y2="176.13"/><line class="cls-1" x1="441.19" y1="195.73" x2="480.4" y2="195.73"/><path class="cls-4" d="M190.46,154.66a45,45,0,0,1,8,10.87V95.63a7.94,7.94,0,1,0-15.87,0V148.4A44.71,44.71,0,0,1,190.46,154.66Z"/><path class="cls-4" d="M254.2,241.59c-24.83-.7-44.26-21.76-44.26-46.59V158.4a7.94,7.94,0,0,1,7.94-7.94h0a8,8,0,0,1,7.94,7.94v36.95c0,15.45,11.53,28.85,26.92,30.26A29.73,29.73,0,0,0,285.21,196l0-37.65a7.93,7.93,0,0,1,7.93-7.93h0a7.93,7.93,0,0,1,7.93,7.93V196A45.63,45.63,0,0,1,254.2,241.59Z"/><path class="cls-2" d="M358.12,241.75H328.46a7.93,7.93,0,0,1-7.94-7.94h0a7.94,7.94,0,0,1,7.94-7.94h29.66a29.77,29.77,0,0,0,28.65-21.78l-66.24.06a7.94,7.94,0,0,1-7.95-7.94h0a45.6,45.6,0,0,1,45.61-45.6h29.66a7.94,7.94,0,0,1,7.94,7.94h0a7.94,7.94,0,0,1-7.94,7.93H358.19a29.78,29.78,0,0,0-28.65,21.78l66.24,0a7.94,7.94,0,0,1,8,7.94h0A45.61,45.61,0,0,1,358.12,241.75Z"/><path class="cls-2" d="M460.79,241.3H415.22V195.73a45.58,45.58,0,1,1,45.57,45.57ZM431.1,225.42h29.69a29.7,29.7,0,1,0-29.69-29.69Z"/><path class="cls-2" d="M423.16,299.1h0a7.94,7.94,0,0,1-7.94-7.94v-95H431.1v95A7.94,7.94,0,0,1,423.16,299.1Z"/><rect class="cls-2" x="620.5" y="93.03" width="15.88" height="148.65" rx="7.94"/><rect class="cls-2" x="647.88" y="91.98" width="15.88" height="148.65" rx="7.94"/><path class="cls-2" d="M609,196.11a45.57,45.57,0,1,0-45.57,45.57h37.63a7.94,7.94,0,0,0,7.94-7.94h0a8,8,0,0,0-7.94-7.94H563.44a29.74,29.74,0,0,1-28.62-21.75h66.25a8,8,0,0,0,7.94-7.94Zm-74.19-7.94a29.69,29.69,0,0,1,57.23,0Z"/><path class="cls-4" d="M45.58,241.26a45.54,45.54,0,1,1,32.21-77.74l5.65,5.66L45.57,207.05a8,8,0,0,1-11.32,0h0a8,8,0,0,1,0-11.31L60,170a29.57,29.57,0,0,0-43.77,29.67,28.92,28.92,0,0,0,5.12,13.12,29.59,29.59,0,0,0,45.08,3.88L93,190.07l11.32,11.31L77.79,227.94A45.42,45.42,0,0,1,45.58,241.26Z"/><path class="cls-5" d="M98.68,195.73l26.55-26.55a37.55,37.55,0,0,1,53.11,0h0a37.55,37.55,0,0,1,0,53.1h0a37.55,37.55,0,0,1-53.11,0l5.69-5.68"/><text class="cls-6" transform="translate(0 283.41) scale(1.03 1)">YOUR <tspan class="cls-7" x="79.56" y="0">DREAM,</tspan><tspan class="cls-8" x="178.64" y="0"> </tspan><tspan class="cls-9" x="185.62" y="0">OUR </tspan><tspan class="cls-10" x="248.43" y="0">APPROACH</tspan></text></g></g></svg>