<?xml version="1.0" encoding="UTF-8" ?>
<!DOCTYPE svg PUBLIC "-//W3C//DTD SVG 1.1//EN" "http://www.w3.org/Graphics/SVG/1.1/DTD/svg11.dtd">
<svg width="1600pt" height="900pt" viewBox="0 0 1600 900" version="1.1" xmlns="http://www.w3.org/2000/svg">
<g id="#ffffffff">
<path fill="#ffffff" opacity="1.00" d=" M 471.27 338.35 C 472.80 336.79 475.06 337.73 476.97 337.54 C 485.01 337.34 493.06 337.31 501.11 337.48 C 499.13 337.95 497.15 338.38 495.15 338.69 L 495.45 339.16 C 493.06 340.20 490.67 341.23 488.13 341.81 L 488.71 342.88 C 488.10 342.73 486.87 342.42 486.26 342.27 L 486.56 343.86 C 486.00 343.70 484.88 343.39 484.32 343.23 L 484.51 344.86 C 483.97 344.70 482.88 344.38 482.34 344.22 L 482.48 345.90 C 482.03 345.73 481.13 345.40 480.68 345.23 C 480.46 345.86 480.03 347.11 479.81 347.74 L 479.02 342.50 L 478.00 348.86 C 477.72 347.49 477.15 344.75 476.87 343.38 L 476.38 349.38 L 475.81 346.64 C 475.68 347.29 475.40 348.59 475.26 349.23 L 473.52 349.70 C 473.33 350.15 472.95 351.07 472.76 351.53 L 472.01 346.28 C 471.76 347.92 471.24 351.18 470.99 352.82 L 469.85 348.11 L 469.38 353.04 C 468.99 352.82 468.20 352.38 467.81 352.16 C 468.13 355.78 463.60 353.91 461.79 354.87 L 465.40 355.91 C 464.15 356.18 462.90 356.44 461.66 356.67 C 461.45 357.36 461.03 358.74 460.82 359.43 L 459.96 353.70 L 459.30 359.93 C 458.90 359.74 458.11 359.36 457.71 359.17 C 457.51 359.95 457.12 361.51 456.93 362.29 L 455.73 357.80 L 455.54 363.16 L 453.77 359.79 L 454.96 364.12 L 453.18 361.79 L 453.61 363.86 C 452.30 364.93 451.06 366.09 449.87 367.29 L 449.28 367.29 L 449.65 368.64 L 448.59 368.18 C 448.41 368.59 448.04 369.41 447.85 369.83 C 447.31 370.93 446.44 371.61 445.22 371.87 C 445.41 372.27 445.80 373.06 446.00 373.46 L 444.76 373.21 C 444.27 374.42 443.79 375.63 443.30 376.84 L 442.81 376.09 C 442.40 377.97 441.74 379.78 441.27 381.64 L 440.57 381.10 C 440.30 386.04 440.24 390.99 440.58 395.93 L 441.54 395.35 C 441.53 396.23 441.51 397.99 441.49 398.87 L 442.94 398.47 C 442.74 398.99 442.34 400.03 442.15 400.55 L 443.75 400.60 C 443.62 401.13 443.37 402.19 443.25 402.71 L 444.74 402.45 C 444.64 403.03 444.43 404.17 444.33 404.75 L 446.03 404.48 L 446.44 405.34 L 440.93 405.99 C 442.81 406.25 446.58 406.77 448.47 407.03 L 443.48 408.18 L 449.18 408.57 L 446.08 409.78 L 449.07 409.45 C 449.80 410.81 450.92 411.89 451.99 412.99 C 453.74 414.74 455.83 416.28 456.95 418.56 C 457.35 418.49 458.15 418.37 458.55 418.30 L 458.28 421.82 L 459.33 418.88 L 459.94 425.08 L 460.74 419.88 C 461.44 421.17 462.20 422.43 462.88 423.75 C 463.23 423.57 463.95 423.21 464.31 423.03 L 464.95 429.46 L 465.81 423.50 C 466.02 424.21 466.45 425.61 466.66 426.32 C 470.42 425.95 469.81 429.68 469.93 432.68 L 470.93 426.99 C 471.20 428.83 471.74 432.50 472.01 434.33 L 472.76 428.51 C 472.96 429.09 473.36 430.25 473.57 430.83 L 474.32 430.12 L 474.96 436.15 L 475.80 430.53 C 475.99 431.11 476.38 432.28 476.57 432.86 L 477.32 432.03 L 477.95 437.93 L 478.81 432.45 C 479.01 433.04 479.41 434.23 479.61 434.83 L 480.82 434.00 L 480.25 435.80 C 480.77 435.65 481.81 435.33 482.33 435.18 L 482.94 441.39 L 483.88 435.32 C 484.11 436.35 484.58 438.41 484.81 439.44 L 485.36 436.56 L 485.88 442.69 L 486.96 437.18 C 487.22 438.70 487.75 441.74 488.02 443.27 L 488.76 438.53 C 488.96 438.95 489.35 439.79 489.54 440.22 C 490.14 440.56 491.34 441.25 491.94 441.59 L 492.35 440.89 L 492.92 446.82 C 493.16 445.41 493.64 442.58 493.88 441.17 L 494.63 443.74 C 495.10 443.59 496.06 443.27 496.54 443.12 L 496.16 444.29 C 496.71 444.39 497.80 444.58 498.35 444.68 L 498.98 450.16 L 499.79 444.47 C 500.00 445.03 500.41 446.17 500.62 446.74 C 501.06 446.62 501.93 446.40 502.37 446.28 L 502.28 447.19 C 505.02 448.37 507.63 449.85 510.42 450.94 L 510.33 451.88 L 511.84 451.02 L 511.29 452.93 C 511.81 452.70 512.84 452.24 513.35 452.01 L 513.93 457.84 L 514.85 452.17 C 515.07 452.83 515.50 454.15 515.71 454.81 C 516.12 454.62 516.93 454.23 517.34 454.03 L 517.91 460.16 L 518.95 454.00 C 519.21 455.83 519.73 459.47 519.98 461.29 L 520.89 455.14 C 521.17 456.65 521.73 459.67 522.02 461.18 L 522.80 456.53 C 522.95 456.97 523.23 457.84 523.38 458.28 L 524.41 458.60 L 524.71 459.88 C 525.11 459.68 525.91 459.27 526.31 459.06 L 526.94 465.42 L 527.89 459.28 C 528.11 460.30 528.54 462.34 528.76 463.36 L 530.19 460.55 L 528.95 465.73 C 529.61 464.61 530.92 462.38 531.58 461.26 L 530.05 465.16 L 532.54 462.51 L 532.27 464.49 C 532.96 464.52 534.35 464.57 535.04 464.59 L 533.05 467.55 L 536.77 464.60 L 533.20 469.53 C 534.25 468.57 536.36 466.65 537.41 465.69 L 537.19 467.17 C 538.75 467.35 539.64 468.22 539.86 469.77 C 540.30 469.56 541.18 469.14 541.62 468.94 L 541.15 470.25 C 541.70 470.38 542.79 470.65 543.33 470.79 C 543.48 472.36 543.78 475.49 543.93 477.06 L 544.90 470.89 C 545.17 472.45 545.72 475.55 546.00 477.10 L 546.81 472.64 C 547.02 473.28 547.45 474.57 547.66 475.21 C 549.09 475.39 549.78 476.24 549.72 477.74 C 550.20 477.58 551.17 477.28 551.65 477.13 L 551.00 478.76 L 553.23 477.81 L 550.19 480.73 L 554.56 478.63 L 551.22 481.27 L 555.61 479.70 L 552.16 481.90 L 556.00 481.25 L 554.43 484.33 L 557.59 481.65 L 555.05 485.58 L 558.46 482.59 L 555.86 485.96 L 559.03 483.46 L 556.75 486.73 L 559.38 484.93 L 559.36 486.02 C 559.74 486.59 560.50 487.74 560.88 488.32 C 561.50 488.54 562.74 488.97 563.36 489.19 L 558.17 490.06 L 563.86 490.67 L 563.47 491.04 C 563.82 491.72 564.52 493.07 564.86 493.75 L 566.12 493.46 C 565.88 493.87 565.42 494.70 565.19 495.12 C 567.53 495.04 567.35 497.35 567.78 498.86 L 568.92 498.43 C 568.74 498.98 568.38 500.08 568.20 500.63 L 569.91 500.57 C 569.71 501.08 569.30 502.11 569.10 502.62 L 570.26 502.42 C 570.40 502.89 570.68 503.82 570.82 504.28 L 567.33 505.25 L 571.50 505.50 C 571.50 506.35 571.51 508.05 571.52 508.91 L 572.34 508.46 C 572.67 513.50 572.66 518.55 572.39 523.60 L 571.44 523.18 C 571.47 524.02 571.54 525.70 571.57 526.54 L 570.64 526.17 C 570.58 526.72 570.46 527.81 570.40 528.35 L 564.79 528.98 L 570.56 529.79 C 569.99 530.00 568.83 530.42 568.25 530.64 C 568.37 531.07 568.60 531.93 568.72 532.36 L 567.61 532.10 C 567.42 532.51 567.04 533.33 566.86 533.74 C 566.49 534.30 565.75 535.40 565.38 535.96 L 566.00 536.30 L 560.29 536.98 L 564.96 537.62 C 563.38 538.64 562.06 539.99 560.92 541.48 L 560.10 541.31 L 560.79 542.85 L 559.61 542.07 L 559.42 543.41 L 558.09 543.59 L 558.83 544.78 L 557.36 544.09 L 557.53 545.05 C 555.80 546.38 554.16 547.83 552.29 548.96 L 552.60 550.03 C 552.17 549.84 551.30 549.44 550.87 549.24 C 550.64 550.67 549.81 551.54 548.39 551.83 L 547.95 553.62 C 547.64 552.36 547.03 549.85 546.73 548.59 L 546.62 554.54 L 545.81 551.11 C 545.58 552.27 545.13 554.60 544.90 555.77 L 543.93 549.57 L 543.34 555.87 C 542.81 555.69 541.75 555.33 541.23 555.15 L 541.86 556.89 L 540.93 556.41 C 539.96 556.93 538.99 557.43 538.02 557.93 C 537.69 558.29 537.03 558.99 536.70 559.35 L 535.97 553.77 L 535.34 559.98 C 534.81 559.75 533.76 559.31 533.23 559.08 L 533.77 560.75 C 533.15 560.65 531.91 560.44 531.29 560.34 L 531.45 561.94 C 530.94 561.73 529.93 561.32 529.42 561.11 L 529.49 562.53 C 528.65 562.52 526.98 562.50 526.14 562.50 L 526.55 563.97 C 526.02 563.76 524.95 563.33 524.41 563.12 L 524.50 564.45 C 523.67 564.46 522.03 564.48 521.21 564.49 L 521.48 565.55 C 520.66 565.52 519.00 565.46 518.18 565.44 L 518.62 566.45 C 517.74 566.47 516.00 566.50 515.13 566.51 L 515.51 567.42 C 514.04 567.46 512.59 567.50 511.13 567.54 C 511.26 567.78 511.52 568.27 511.64 568.51 C 510.51 568.51 508.26 568.51 507.13 568.51 L 507.65 569.57 C 506.80 569.54 505.11 569.47 504.26 569.43 L 504.39 570.21 C 500.22 570.29 496.29 572.08 492.08 571.56 L 492.76 572.69 C 491.24 572.59 489.72 572.49 488.20 572.40 C 488.31 572.62 488.53 573.05 488.64 573.27 C 486.10 573.42 483.56 573.48 481.06 573.92 C 476.70 574.85 472.24 575.21 467.81 575.64 C 473.90 574.81 479.90 573.46 485.92 572.25 L 485.47 571.56 C 486.31 571.55 488.01 571.51 488.86 571.50 L 488.48 570.56 C 489.33 570.54 491.05 570.49 491.90 570.47 L 491.44 569.36 C 492.28 569.42 493.96 569.53 494.80 569.59 L 494.35 568.01 C 494.76 568.16 495.59 568.47 496.01 568.62 C 497.05 567.25 498.44 565.81 500.40 566.38 L 500.58 565.48 L 501.62 565.36 C 501.77 564.90 502.06 563.98 502.21 563.52 L 503.00 568.93 C 503.24 567.27 503.74 563.94 503.99 562.28 L 505.30 567.52 L 505.46 561.66 L 506.95 565.16 L 506.38 561.94 C 507.95 560.57 509.48 558.83 511.79 559.10 L 511.27 558.20 C 514.04 556.51 515.70 553.47 518.64 552.04 C 518.51 551.66 518.25 550.89 518.12 550.51 L 519.15 550.77 C 519.44 549.27 520.33 548.39 521.81 548.11 C 521.60 547.73 521.17 546.97 520.95 546.59 L 522.14 546.74 C 522.50 546.06 523.23 544.72 523.59 544.05 L 522.93 543.66 L 528.89 543.07 C 527.46 542.84 524.62 542.36 523.20 542.13 L 525.78 541.35 C 525.59 540.85 525.20 539.86 525.01 539.36 L 526.52 539.86 C 526.50 539.00 526.46 537.28 526.44 536.42 L 527.55 536.83 C 527.52 535.97 527.47 534.24 527.44 533.37 L 528.59 533.86 C 528.51 532.93 528.36 531.06 528.28 530.13 L 529.48 530.97 C 529.43 525.31 529.49 519.66 529.47 514.00 L 528.53 514.74 C 528.52 513.59 528.49 511.29 528.48 510.14 L 527.47 510.57 C 527.49 509.72 527.54 508.02 527.56 507.17 L 526.81 507.55 C 526.62 507.07 526.23 506.09 526.04 505.61 L 530.49 505.04 C 528.89 504.77 525.68 504.22 524.07 503.95 L 529.86 502.90 L 524.09 502.35 C 524.29 501.83 524.68 500.79 524.88 500.27 L 523.02 500.90 L 523.65 499.97 C 523.37 499.32 522.82 498.02 522.54 497.37 L 520.51 498.08 L 524.22 495.65 L 519.83 497.11 L 522.39 495.07 L 519.51 495.82 L 519.73 494.31 L 518.26 494.53 L 518.81 491.88 L 517.10 494.05 L 518.37 489.39 L 516.53 493.19 L 516.18 487.34 L 515.14 492.27 C 514.95 491.73 514.59 490.63 514.41 490.09 C 512.61 489.89 511.21 488.78 510.12 487.42 L 509.65 487.81 L 509.06 481.64 L 508.14 487.63 C 507.90 486.66 507.41 484.72 507.17 483.74 L 506.76 486.30 L 506.01 480.03 L 505.33 485.18 C 504.05 483.73 501.64 482.86 502.21 480.39 L 501.64 483.40 L 501.10 477.32 C 500.85 478.69 500.34 481.43 500.09 482.80 L 499.39 480.25 C 498.91 480.41 497.97 480.71 497.50 480.87 L 497.66 479.21 C 497.13 479.37 496.06 479.69 495.52 479.84 L 495.72 478.28 C 495.21 478.40 494.19 478.63 493.69 478.75 L 493.03 472.70 L 492.21 478.56 C 491.99 477.96 491.55 476.78 491.33 476.18 C 490.91 476.35 490.07 476.69 489.65 476.86 L 489.62 475.24 C 489.11 475.38 488.10 475.64 487.59 475.77 L 487.62 474.22 C 487.12 474.36 486.11 474.64 485.61 474.79 L 485.62 473.22 C 485.11 473.37 484.09 473.66 483.58 473.80 L 483.64 472.23 C 483.12 472.38 482.07 472.66 481.55 472.81 L 481.64 471.22 C 481.12 471.37 480.06 471.68 479.54 471.84 L 479.64 470.21 C 479.10 470.37 478.02 470.71 477.48 470.87 L 477.71 469.24 C 477.21 469.39 476.19 469.68 475.69 469.83 L 475.03 464.59 L 474.30 469.23 L 473.52 468.85 L 473.74 467.23 C 473.22 467.39 472.18 467.72 471.66 467.88 L 471.04 461.75 L 470.20 467.79 C 469.99 467.30 469.58 466.31 469.37 465.82 C 468.20 465.48 467.08 465.04 466.00 464.50 C 465.66 464.51 464.98 464.53 464.64 464.54 L 464.61 463.25 C 464.13 463.36 463.17 463.56 462.69 463.66 L 462.68 462.84 C 462.00 462.48 460.65 461.76 459.97 461.40 C 459.65 461.49 459.01 461.67 458.69 461.76 L 458.60 460.24 C 458.11 460.37 457.14 460.61 456.65 460.73 L 456.75 459.81 C 453.96 458.67 451.22 457.40 448.61 455.91 L 448.23 453.47 L 447.28 456.46 L 447.41 450.82 C 447.03 452.05 446.28 454.49 445.90 455.71 L 445.46 453.19 C 445.02 453.38 444.12 453.75 443.68 453.93 L 443.02 447.61 L 442.32 453.20 L 441.59 453.04 L 441.71 451.30 C 441.21 451.41 440.19 451.64 439.69 451.76 L 439.03 445.72 L 438.23 451.48 C 438.04 451.02 437.66 450.10 437.47 449.64 C 435.17 448.57 432.71 447.81 430.64 446.32 C 428.94 444.67 425.83 443.18 428.64 439.85 C 428.22 440.79 427.39 442.69 426.97 443.64 C 426.51 443.44 425.59 443.03 425.13 442.83 C 424.80 442.65 424.14 442.30 423.80 442.12 C 423.46 441.77 422.78 441.06 422.44 440.71 L 422.29 440.15 C 421.19 439.10 418.92 439.61 419.18 437.22 C 418.76 437.41 417.91 437.79 417.49 437.98 L 417.79 436.84 C 416.23 436.60 415.35 435.72 415.13 434.19 C 414.76 434.38 414.03 434.78 413.67 434.98 L 413.79 433.38 L 412.33 433.61 L 412.86 430.11 L 411.58 433.18 L 411.14 427.55 L 410.17 432.21 C 409.96 431.66 409.53 430.55 409.31 430.00 C 408.03 429.08 406.91 427.97 405.99 426.70 C 405.42 426.47 404.27 426.02 403.69 425.79 L 409.16 424.92 L 402.71 424.36 L 406.45 423.20 L 402.85 423.54 C 401.99 422.19 401.08 420.88 400.21 419.54 C 399.76 419.34 398.86 418.94 398.41 418.74 L 404.09 418.01 C 402.33 417.76 398.81 417.24 397.06 416.98 L 402.05 415.85 L 397.05 415.41 C 397.23 414.96 397.60 414.07 397.78 413.63 L 395.10 412.91 C 396.57 412.67 399.51 412.17 400.98 411.92 L 395.32 411.37 C 395.39 410.57 395.55 408.97 395.62 408.18 C 395.35 408.30 394.79 408.56 394.52 408.68 C 394.39 403.26 394.34 397.83 394.57 392.42 C 394.82 392.52 395.31 392.72 395.56 392.82 C 395.52 391.96 395.45 390.23 395.41 389.36 L 396.19 389.84 C 396.58 388.05 397.23 386.34 397.77 384.59 L 398.19 384.64 C 398.55 383.95 399.28 382.59 399.64 381.90 L 399.24 380.84 C 399.66 380.77 400.48 380.62 400.90 380.54 L 399.94 379.67 L 405.84 379.08 L 400.38 378.18 C 400.99 377.96 402.23 377.52 402.84 377.30 L 402.02 375.45 L 406.69 379.02 C 405.78 378.01 403.98 376.00 403.08 374.99 C 404.22 373.91 405.19 372.53 406.79 372.06 C 406.58 371.72 406.18 371.05 405.97 370.71 L 412.33 370.04 L 406.63 369.23 C 407.23 369.00 408.43 368.53 409.03 368.30 C 411.09 365.55 413.55 363.09 416.31 361.03 C 416.54 360.43 417.00 359.23 417.22 358.62 L 418.04 364.36 L 418.71 357.97 C 419.08 358.20 419.81 358.65 420.18 358.87 C 420.24 357.18 421.13 356.29 422.82 356.19 L 422.43 354.99 C 422.86 355.19 423.74 355.58 424.18 355.77 C 424.05 352.48 428.04 353.69 429.97 353.42 L 426.10 351.98 L 429.59 352.45 L 428.41 351.09 C 428.98 351.26 430.13 351.62 430.70 351.80 L 430.43 350.25 C 431.01 350.36 432.17 350.57 432.75 350.68 L 432.46 349.09 C 433.00 349.27 434.10 349.63 434.65 349.81 L 434.49 348.12 C 435.03 348.28 436.11 348.62 436.64 348.79 L 436.54 347.12 C 437.06 347.30 438.10 347.67 438.62 347.85 L 438.44 346.78 C 440.22 346.27 441.96 345.63 443.77 345.21 L 443.46 344.43 C 444.32 344.46 446.02 344.51 446.87 344.54 L 446.34 343.41 C 447.24 343.44 449.03 343.51 449.92 343.55 L 449.27 342.49 C 450.79 342.48 452.32 342.47 453.85 342.49 L 453.30 341.38 C 454.84 341.42 456.38 341.47 457.92 341.52 L 457.23 340.38 C 458.77 340.43 460.31 340.48 461.86 340.55 L 461.28 339.68 C 462.65 339.54 464.03 339.39 465.41 339.23 L 466.01 343.46 C 466.17 342.26 466.50 339.86 466.66 338.66 C 468.19 338.57 469.73 338.47 471.27 338.35 Z" />
<path fill="#ffffff" opacity="1.00" d=" M 567.03 344.47 C 576.10 344.33 585.17 344.60 594.23 344.31 L 590.20 345.52 C 595.59 345.38 601.00 345.33 606.40 345.68 C 606.53 346.69 606.80 348.71 606.93 349.72 L 607.63 346.23 C 608.42 346.33 610.00 346.52 610.79 346.62 L 610.07 347.49 C 611.53 347.48 613.00 347.47 614.48 347.49 L 614.19 348.34 C 614.72 348.41 615.80 348.55 616.34 348.62 L 616.98 353.39 L 617.79 348.50 C 617.97 348.96 618.33 349.89 618.51 350.35 L 619.46 350.77 L 619.67 352.00 L 620.90 351.35 C 620.72 351.96 620.37 353.19 620.20 353.80 L 621.62 353.15 C 621.57 355.35 621.56 357.56 621.56 359.76 L 620.13 359.26 C 620.37 359.91 620.83 361.20 621.06 361.85 L 619.77 361.07 C 619.82 364.49 616.87 366.55 614.99 369.00 C 613.97 370.00 612.96 371.01 611.93 371.99 C 606.90 377.66 600.57 382.04 594.26 386.18 C 592.02 387.80 590.21 390.36 587.26 390.68 C 591.16 388.02 594.85 385.07 598.61 382.21 L 598.64 380.96 L 600.41 381.95 C 600.22 380.65 600.05 379.35 599.88 378.06 L 600.24 379.67 L 602.92 379.37 L 602.00 377.75 L 606.89 376.90 L 603.02 376.44 C 606.27 374.73 607.44 371.09 609.12 368.07 C 611.90 363.51 609.56 356.87 604.59 354.96 L 604.43 354.05 L 602.58 355.02 C 602.63 354.62 602.73 353.83 602.78 353.43 C 601.88 353.49 600.09 353.62 599.20 353.68 L 599.95 352.53 C 597.67 352.56 595.41 352.54 593.14 352.53 L 593.96 351.51 C 586.69 351.60 579.42 351.64 572.15 351.49 C 572.28 351.69 572.52 352.09 572.65 352.30 C 567.11 352.36 561.57 352.76 556.03 352.51 L 556.92 353.58 C 554.29 353.56 551.65 353.58 549.03 353.52 L 549.91 354.63 C 547.96 354.58 546.00 354.55 544.06 354.49 L 544.84 355.54 C 543.50 355.55 542.16 355.57 540.84 355.59 C 539.25 356.43 536.88 357.73 535.75 355.13 C 536.04 355.71 536.61 356.85 536.89 357.42 C 535.10 357.50 533.30 357.54 531.52 357.54 C 531.43 358.20 531.27 359.54 531.18 360.21 C 532.93 360.61 534.63 361.23 536.37 361.74 L 536.96 366.89 L 537.82 361.37 C 538.04 361.99 538.47 363.23 538.69 363.85 C 539.12 363.64 540.00 363.23 540.44 363.02 L 540.35 364.77 C 540.88 364.62 541.94 364.31 542.47 364.15 L 542.39 365.82 C 543.01 365.61 544.27 365.18 544.89 364.97 L 541.89 368.27 L 546.51 365.37 L 544.23 367.64 C 546.17 366.71 547.89 368.01 549.61 368.65 L 549.17 369.22 C 550.79 369.31 551.68 370.16 551.85 371.77 C 552.20 371.62 552.90 371.31 553.26 371.15 C 554.22 372.24 555.31 373.27 555.97 374.62 C 556.38 374.47 557.21 374.19 557.62 374.05 L 556.43 375.91 L 559.01 374.71 L 555.69 378.77 L 559.34 375.88 L 559.91 381.38 L 560.87 376.59 C 561.06 377.39 561.46 379.00 561.65 379.80 L 562.88 378.88 L 562.33 380.15 C 563.74 380.45 564.58 381.31 564.87 382.74 L 566.29 382.38 L 563.33 386.22 L 567.20 383.10 L 565.87 385.94 L 568.15 384.23 C 567.91 384.75 567.42 385.77 567.17 386.28 C 567.94 386.48 569.47 386.87 570.23 387.07 L 567.40 388.04 C 568.54 388.31 570.83 388.86 571.98 389.13 L 566.30 390.06 C 568.84 390.26 573.05 389.45 572.74 393.06 C 573.75 393.58 574.44 394.39 574.80 395.49 C 575.21 395.69 576.03 396.07 576.43 396.26 L 571.35 396.97 C 572.98 397.24 576.24 397.79 577.87 398.06 L 572.66 399.02 C 574.24 399.29 577.40 399.82 578.98 400.09 L 572.91 401.02 C 574.68 401.28 578.23 401.79 580.00 402.05 L 574.42 403.02 C 576.05 403.27 579.30 403.78 580.93 404.03 L 575.56 405.08 C 576.91 405.24 579.62 405.55 580.97 405.70 L 580.04 407.53 L 581.51 407.51 C 581.51 408.34 581.51 410.02 581.51 410.86 L 583.05 410.47 C 582.89 410.82 582.57 411.52 582.42 411.87 C 583.10 413.10 583.57 414.42 583.81 415.83 C 583.97 415.74 584.31 415.54 584.48 415.45 C 584.49 416.56 584.52 418.79 584.53 419.91 L 585.62 419.27 C 585.57 420.82 585.52 422.36 585.48 423.91 L 586.57 423.20 C 586.57 424.44 586.57 425.69 586.60 426.95 C 588.07 429.00 587.45 431.59 587.55 433.95 L 588.51 433.20 C 588.56 436.46 588.62 439.72 588.51 442.98 L 589.46 442.08 C 589.64 450.21 589.65 458.35 589.23 466.47 L 588.56 466.10 C 588.57 468.58 588.44 471.05 588.33 473.54 C 588.14 473.44 587.77 473.24 587.58 473.15 C 587.55 475.25 587.43 477.36 587.31 479.48 L 586.42 479.22 C 586.48 480.11 586.61 481.90 586.67 482.80 L 585.57 482.05 C 585.55 483.92 585.50 485.80 585.45 487.68 L 584.41 487.14 C 584.48 488.04 584.61 489.83 584.68 490.73 L 583.55 490.09 C 583.53 491.21 583.50 493.46 583.48 494.58 C 583.22 494.49 582.71 494.30 582.45 494.20 C 582.48 495.04 582.53 496.71 582.55 497.55 L 581.54 497.12 C 581.51 497.98 581.47 499.71 581.44 500.58 L 580.63 500.17 C 580.52 501.00 580.31 502.64 580.21 503.47 C 579.84 501.97 579.52 500.49 579.18 499.01 C 578.95 498.31 578.49 496.91 578.26 496.21 L 577.09 496.45 C 577.28 495.95 577.66 494.94 577.85 494.44 L 576.44 494.45 C 576.47 493.76 576.52 492.36 576.55 491.66 C 575.97 491.46 574.81 491.04 574.22 490.83 L 579.70 489.94 L 574.02 489.33 C 574.22 488.92 574.61 488.10 574.80 487.69 C 574.16 487.48 572.89 487.06 572.26 486.85 L 577.59 485.93 L 572.00 485.35 L 572.57 484.89 C 572.24 484.29 571.60 483.08 571.27 482.48 C 570.85 482.30 570.01 481.94 569.58 481.76 L 575.23 480.97 L 569.24 480.31 C 569.35 479.88 569.57 479.01 569.68 478.58 L 567.04 477.89 C 568.41 477.65 571.13 477.17 572.49 476.93 C 571.06 476.78 568.20 476.48 566.77 476.33 C 566.68 475.85 566.49 474.89 566.40 474.42 L 565.36 474.67 L 565.64 473.18 L 564.35 473.75 L 564.86 472.33 L 563.38 472.70 L 563.69 471.90 C 562.74 471.31 561.82 470.68 560.93 470.03 C 562.55 469.78 565.79 469.27 567.41 469.01 L 562.31 468.24 C 562.79 468.05 563.74 467.67 564.22 467.48 C 565.11 465.04 567.19 464.21 570.47 464.99 C 569.23 464.84 566.76 464.52 565.52 464.37 C 566.43 460.29 579.13 461.24 567.49 460.22 C 568.06 460.00 569.21 459.56 569.79 459.34 C 569.62 458.89 569.29 458.01 569.12 457.56 L 570.24 457.79 C 570.62 455.88 571.26 454.04 571.69 452.15 L 572.50 452.94 C 572.38 449.00 572.41 445.06 572.47 441.12 L 570.98 441.57 C 571.14 441.19 571.46 440.43 571.62 440.06 C 571.03 439.07 570.52 438.06 570.07 437.02 C 569.39 436.32 568.71 435.62 568.04 434.92 C 567.85 434.47 567.47 433.56 567.28 433.11 L 566.57 433.80 L 566.16 428.97 L 565.11 433.16 C 564.93 432.56 564.57 431.34 564.39 430.73 C 563.95 430.62 563.08 430.40 562.64 430.30 L 562.02 425.05 L 561.20 430.48 C 561.01 429.90 560.62 428.74 560.42 428.16 L 559.63 429.08 L 559.11 423.35 L 558.04 428.99 C 557.78 427.35 557.26 424.08 557.00 422.44 C 556.79 423.79 556.38 426.49 556.17 427.84 L 555.34 425.25 C 554.87 425.42 553.91 425.75 553.44 425.92 L 553.72 424.27 C 553.14 424.41 551.96 424.70 551.37 424.85 L 551.71 423.16 C 551.20 423.35 550.17 423.74 549.66 423.93 L 549.05 417.88 L 548.17 423.79 C 547.96 423.21 547.54 422.03 547.33 421.44 C 546.65 421.47 545.28 421.53 544.59 421.56 L 544.63 420.26 C 544.12 420.37 543.09 420.59 542.58 420.70 L 542.59 419.18 C 542.09 419.35 541.08 419.69 540.58 419.86 L 540.63 418.23 C 540.10 418.38 539.04 418.70 538.51 418.86 L 538.58 417.12 L 536.46 418.03 C 536.53 417.63 536.67 416.85 536.74 416.46 C 535.95 416.48 534.38 416.52 533.59 416.54 L 533.58 415.19 C 533.10 415.33 532.13 415.63 531.64 415.77 L 531.59 414.22 C 531.08 414.37 530.07 414.67 529.56 414.83 L 529.63 413.22 C 529.09 413.38 528.02 413.71 527.48 413.87 L 527.68 412.24 C 527.12 412.39 525.99 412.71 525.43 412.87 L 525.63 411.13 C 525.04 411.37 523.86 411.84 523.27 412.07 L 523.86 410.82 C 522.04 410.46 520.33 409.78 518.59 409.21 L 518.67 408.80 C 516.38 407.85 514.17 406.73 512.07 405.44 L 511.18 405.98 L 511.72 404.11 C 511.20 404.32 510.17 404.74 509.66 404.94 L 509.06 398.94 C 508.83 400.41 508.37 403.35 508.15 404.82 L 507.41 402.30 C 506.97 402.41 506.08 402.62 505.63 402.73 L 505.54 401.16 L 503.49 401.84 L 506.69 397.82 C 505.65 402.61 501.47 401.00 501.11 398.23 C 500.70 398.43 499.89 398.84 499.48 399.05 L 499.74 397.81 C 498.64 397.30 497.55 396.79 496.47 396.27 L 496.74 394.96 L 495.68 395.98 L 495.04 389.87 L 494.29 395.11 C 493.64 393.94 492.94 392.80 492.28 391.65 C 491.61 391.44 490.27 391.02 489.60 390.81 L 495.13 389.93 L 488.99 389.32 L 489.96 388.30 L 488.21 388.40 C 488.32 388.03 488.52 387.29 488.62 386.92 C 486.13 386.24 485.59 383.28 485.22 381.12 L 484.39 381.79 C 484.43 378.25 484.43 374.71 484.38 371.18 L 485.26 371.91 C 485.47 370.22 485.40 368.10 487.74 368.16 C 487.58 367.77 487.27 367.01 487.11 366.62 L 488.16 366.75 C 488.55 366.36 489.34 365.57 489.73 365.18 L 489.65 364.14 C 490.03 364.28 490.77 364.57 491.15 364.72 C 491.36 363.24 492.21 362.39 493.71 362.17 L 493.59 361.21 C 494.13 361.35 495.21 361.62 495.75 361.76 L 495.18 360.08 L 496.20 360.76 C 496.67 360.28 497.63 359.33 498.10 358.85 C 499.36 358.63 500.63 358.45 501.91 358.30 L 501.23 356.92 C 501.82 357.15 503.01 357.61 503.60 357.84 L 503.52 356.05 C 504.05 356.26 505.11 356.66 505.63 356.86 L 505.44 355.45 C 506.31 355.47 508.04 355.50 508.91 355.51 L 508.28 354.37 C 509.19 354.41 511.00 354.49 511.91 354.54 L 511.28 353.36 C 512.18 353.41 513.98 353.50 514.88 353.55 L 514.34 352.40 C 515.20 352.44 516.93 352.52 517.79 352.56 L 517.46 351.56 C 518.91 351.52 520.36 351.48 521.82 351.47 C 521.72 351.24 521.52 350.78 521.42 350.56 C 523.26 350.49 525.10 350.45 526.95 350.44 L 526.26 349.42 C 527.76 349.44 529.28 349.49 530.79 349.54 C 530.69 349.31 530.49 348.85 530.39 348.63 C 532.91 348.49 535.44 348.40 537.98 348.44 L 537.15 347.46 C 540.09 347.44 543.04 347.39 545.99 347.48 L 545.01 346.38 C 547.99 346.43 550.97 346.40 553.96 346.49 L 553.08 345.46 C 558.04 345.45 563.00 345.35 567.96 345.50 L 567.03 344.47 Z" />
<path fill="#ffffff" opacity="1.00" d=" M 588.55 357.41 C 592.87 357.45 597.20 357.37 601.53 357.51 L 601.36 358.82 C 601.83 358.68 602.76 358.40 603.23 358.26 L 603.34 359.25 C 604.09 360.04 604.83 360.83 605.58 361.64 C 605.56 363.67 605.51 365.71 605.43 367.75 L 602.11 367.06 L 605.27 368.88 L 600.63 368.23 L 604.03 370.09 C 603.33 369.94 601.93 369.65 601.23 369.50 L 602.15 372.37 L 599.84 369.03 L 601.13 373.29 L 598.84 370.11 L 600.02 373.74 L 598.31 372.40 L 599.03 375.18 L 596.98 372.46 L 598.11 376.25 L 595.98 373.36 L 596.87 376.54 L 595.32 376.25 L 595.54 377.81 C 594.96 377.67 593.79 377.41 593.21 377.28 C 593.38 377.86 593.73 379.02 593.90 379.59 L 592.35 379.08 L 592.74 380.64 L 591.33 380.14 L 591.67 381.69 L 590.82 381.27 C 590.41 381.69 589.58 382.51 589.17 382.92 L 589.58 383.88 C 589.00 383.72 587.84 383.39 587.26 383.23 C 587.40 383.79 587.68 384.93 587.81 385.49 L 586.36 385.19 L 586.60 386.62 L 585.26 386.33 L 585.36 387.93 C 584.96 387.74 584.15 387.36 583.74 387.16 C 584.12 389.29 582.30 389.80 580.72 390.34 L 583.17 388.10 L 579.69 389.12 L 582.72 387.02 L 579.98 387.70 C 578.51 384.94 575.64 383.30 574.14 380.57 L 572.54 381.02 L 575.91 378.84 L 571.67 380.12 L 574.61 378.08 L 571.96 378.69 C 570.94 375.68 565.69 374.29 568.05 370.58 L 569.19 374.82 L 569.57 370.18 L 570.15 370.78 C 571.11 369.86 572.08 368.95 573.06 368.06 L 573.32 367.57 L 574.01 372.94 C 574.15 370.10 573.47 366.17 577.07 366.22 C 577.54 364.94 578.73 364.49 579.92 364.10 C 580.79 363.17 581.83 362.48 582.93 361.85 C 583.28 361.49 583.99 360.77 584.34 360.41 L 585.68 360.88 L 585.30 359.42 L 586.53 359.70 C 586.67 359.23 586.95 358.29 587.10 357.81 L 588.19 361.25 L 588.55 357.41 Z" />
<path fill="#ffffff" opacity="1.00" d=" M 656.35 360.44 C 692.46 360.61 728.58 360.60 764.69 360.45 C 764.58 362.48 764.51 364.51 764.43 366.55 L 763.66 366.16 C 763.59 366.71 763.44 367.80 763.37 368.35 L 758.19 368.98 L 763.48 369.78 C 762.91 369.99 761.79 370.40 761.23 370.61 L 761.83 371.92 L 759.75 370.02 L 761.32 373.19 L 758.13 370.31 L 760.41 374.17 L 757.47 371.73 L 758.96 374.42 L 758.01 374.39 C 757.33 374.75 755.97 375.48 755.30 375.84 L 755.41 376.83 C 754.90 376.67 753.87 376.34 753.35 376.17 L 753.52 377.44 C 726.84 377.68 700.15 377.62 673.47 377.47 C 673.63 384.15 673.63 390.84 673.47 397.53 C 703.87 397.22 734.29 397.65 764.69 397.31 C 764.49 415.10 764.50 432.90 764.69 450.69 C 728.55 450.49 692.40 450.50 656.26 450.69 C 656.42 449.25 656.57 447.81 656.72 446.38 L 657.34 446.89 C 657.48 445.57 657.66 444.26 657.86 442.96 C 658.75 442.31 659.64 441.68 660.56 441.07 C 660.50 440.62 660.39 439.72 660.33 439.27 L 663.40 439.82 L 660.72 437.94 L 663.08 438.58 L 662.40 437.03 C 662.85 437.21 663.75 437.57 664.20 437.76 C 664.02 435.36 666.25 435.51 667.92 435.27 L 667.26 434.35 C 668.81 434.41 670.37 434.47 671.94 434.54 L 671.13 433.49 C 696.62 433.59 722.10 433.40 747.59 433.59 C 747.47 427.21 747.46 420.83 747.59 414.46 C 717.17 414.73 686.74 414.34 656.32 414.66 C 656.52 396.59 656.46 378.51 656.35 360.44 Z" />
<path fill="#ffffff" opacity="1.00" d=" M 784.35 360.44 C 820.45 360.61 856.55 360.61 892.65 360.44 C 892.49 374.01 892.57 387.58 892.61 401.14 C 892.95 402.47 891.78 403.26 890.92 403.99 C 890.46 404.98 889.99 405.96 889.51 406.94 L 889.68 407.78 L 888.09 406.38 L 889.25 409.16 L 886.01 406.19 L 888.05 409.65 L 883.55 409.27 L 887.58 411.01 C 886.87 410.88 885.45 410.63 884.74 410.50 C 884.89 412.75 882.79 412.49 881.24 412.66 C 881.31 413.02 881.43 413.74 881.50 414.11 L 879.48 413.01 L 879.54 414.34 C 853.50 414.75 827.45 414.53 801.41 414.46 C 801.65 426.52 801.30 438.59 801.59 450.66 C 795.83 450.53 790.06 450.49 784.31 450.69 C 784.50 432.90 784.50 415.10 784.31 397.31 C 812.18 397.62 840.06 397.27 867.93 397.49 L 867.34 396.42 C 868.16 396.47 869.81 396.57 870.64 396.62 L 870.33 395.36 L 871.78 395.61 L 871.42 394.62 C 873.14 394.49 876.59 394.23 878.31 394.10 L 871.82 393.08 C 873.61 392.81 877.20 392.27 879.00 392.00 C 877.53 391.78 874.60 391.34 873.13 391.12 L 875.50 390.50 C 875.39 386.16 875.36 381.81 875.53 377.47 C 845.13 377.78 814.71 377.35 784.31 377.69 C 784.51 371.94 784.46 366.19 784.35 360.44 Z" />
<path fill="#ffffff" opacity="1.00" d=" M 911.43 360.48 C 947.50 360.56 983.58 360.63 1019.64 360.44 C 1019.57 362.42 1019.55 364.40 1019.59 366.38 C 1018.22 366.52 1015.50 366.79 1014.14 366.93 C 1015.57 367.17 1018.44 367.65 1019.88 367.89 L 1017.26 368.63 C 1017.41 369.10 1017.72 370.03 1017.87 370.49 L 1016.88 370.23 C 1016.54 371.63 1015.68 372.53 1014.29 372.90 L 1014.68 374.34 L 1010.54 371.12 L 1014.01 375.27 L 1011.98 374.27 L 1012.46 375.79 C 1011.92 375.66 1010.83 375.39 1010.29 375.25 L 1010.52 376.88 C 1009.98 376.71 1008.90 376.35 1008.35 376.17 L 1008.56 377.47 C 980.24 377.70 951.93 377.51 923.62 377.57 C 923.49 376.32 923.23 373.82 923.10 372.57 C 922.82 373.90 922.28 376.57 922.00 377.91 L 920.95 371.61 L 920.37 376.32 C 917.66 373.58 914.29 371.20 913.15 367.32 L 912.47 367.41 C 912.49 366.61 912.53 365.00 912.55 364.20 L 911.72 364.54 C 911.63 363.18 911.53 361.83 911.43 360.48 Z" />
<path fill="#ffffff" opacity="1.00" d=" M 1039.35 360.44 C 1045.11 360.60 1050.88 360.60 1056.65 360.44 C 1056.41 384.82 1056.75 409.20 1056.48 433.58 C 1086.88 433.36 1117.30 433.68 1147.70 433.42 C 1147.57 435.46 1147.50 437.50 1147.41 439.55 L 1146.19 439.32 C 1146.34 439.81 1146.64 440.80 1146.80 441.30 L 1141.09 441.96 L 1146.47 442.79 C 1145.92 442.98 1144.81 443.37 1144.25 443.56 L 1144.61 444.70 L 1143.05 444.32 L 1143.84 445.90 L 1142.35 445.00 L 1142.73 446.58 L 1141.23 446.32 L 1141.66 447.59 L 1140.45 447.26 C 1140.37 447.62 1140.21 448.35 1140.13 448.71 L 1138.44 448.13 L 1138.52 449.24 C 1134.26 451.20 1129.54 450.46 1125.02 450.57 C 1096.45 450.65 1067.87 450.42 1039.31 450.69 C 1039.53 420.61 1039.45 390.52 1039.35 360.44 Z" />
<path fill="#ffffff" opacity="1.00" d=" M 1167.35 360.44 C 1173.08 360.61 1178.82 360.57 1184.56 360.47 C 1184.34 384.84 1184.63 409.22 1184.41 433.59 C 1214.85 433.35 1245.29 433.69 1275.73 433.42 C 1275.54 435.10 1275.40 436.79 1275.28 438.49 L 1274.18 438.38 C 1274.34 438.87 1274.67 439.85 1274.84 440.34 L 1269.69 440.91 L 1274.79 441.94 C 1273.35 442.22 1270.46 442.77 1269.01 443.05 L 1272.96 443.58 C 1271.20 444.73 1269.67 446.21 1268.63 448.05 L 1267.99 443.05 L 1267.28 448.98 C 1266.89 448.77 1266.12 448.36 1265.73 448.15 C 1265.52 448.79 1265.09 450.08 1264.88 450.72 L 1263.93 445.73 L 1263.37 450.54 C 1231.35 450.69 1199.33 450.40 1167.31 450.69 C 1167.53 420.61 1167.45 390.52 1167.35 360.44 Z" />
<path fill="#ffffff" opacity="1.00" d=" M 911.40 397.35 C 947.50 397.45 983.62 397.52 1019.72 397.32 C 1019.58 399.38 1019.52 401.45 1019.44 403.52 L 1018.15 403.39 C 1018.32 403.89 1018.67 404.89 1018.85 405.39 L 1017.89 405.27 C 1017.07 407.27 1015.61 408.89 1013.72 409.92 C 1013.49 410.55 1013.03 411.80 1012.79 412.43 L 1011.98 407.61 L 1011.35 412.36 C 1010.79 412.45 1009.67 412.61 1009.12 412.70 L 1009.65 413.63 C 1008.76 413.58 1006.99 413.49 1006.10 413.44 L 1006.69 414.43 C 979.54 414.64 952.39 414.58 925.24 414.46 L 925.90 413.39 C 924.97 413.48 923.12 413.64 922.20 413.73 L 922.94 412.75 C 921.40 412.83 920.16 412.35 919.20 411.29 C 917.70 410.81 916.34 409.94 915.65 408.48 C 914.73 406.72 913.25 405.21 913.19 403.10 L 912.32 403.70 C 912.39 402.82 912.53 401.04 912.60 400.16 C 912.37 400.28 911.92 400.51 911.70 400.63 C 911.62 399.81 911.47 398.17 911.40 397.35 Z" />
<path fill="#ffffff" opacity="1.00" d=" M 385.25 419.97 C 385.42 418.35 385.63 416.74 386.35 415.27 C 386.41 416.16 386.52 417.93 386.57 418.81 L 387.99 418.48 C 387.77 419.01 387.33 420.06 387.11 420.58 L 388.23 420.45 C 388.76 422.24 389.40 423.99 389.82 425.83 L 391.08 425.45 C 390.85 425.91 390.39 426.83 390.16 427.28 C 390.77 427.51 391.97 427.96 392.57 428.19 L 387.79 429.02 L 392.31 429.66 C 392.41 430.20 392.63 431.29 392.74 431.83 L 393.85 431.53 C 393.69 432.05 393.37 433.11 393.21 433.63 L 394.82 433.54 C 394.68 434.03 394.41 435.00 394.27 435.49 L 396.61 435.93 C 395.44 436.37 393.10 437.26 391.93 437.70 L 397.39 437.12 L 394.55 438.57 L 397.52 438.43 C 397.51 439.03 397.49 440.24 397.48 440.84 L 398.97 440.49 L 399.40 441.33 L 394.45 442.01 C 398.08 441.11 400.19 442.03 400.79 444.79 L 402.24 444.38 L 399.45 448.23 L 402.91 445.17 L 402.24 449.50 L 403.93 446.14 C 404.31 446.99 404.69 447.83 405.08 448.69 L 403.89 448.19 C 403.59 449.40 402.91 450.33 401.86 450.98 C 401.47 452.41 400.95 453.81 399.17 453.86 C 399.41 454.27 399.87 455.08 400.11 455.49 L 398.25 455.32 C 398.40 455.87 398.70 456.96 398.85 457.51 L 397.71 457.17 C 397.61 457.72 397.42 458.82 397.33 459.38 L 392.11 459.96 C 393.54 460.19 396.41 460.65 397.84 460.88 L 395.46 461.50 C 395.50 462.30 395.56 463.89 395.60 464.68 L 394.61 464.07 C 394.31 468.65 394.08 473.24 394.55 477.82 L 395.09 477.63 C 395.82 479.16 396.64 480.65 397.30 482.22 C 397.69 482.72 398.46 483.71 398.84 484.21 C 399.07 484.46 399.52 484.95 399.75 485.20 C 400.96 485.58 401.66 486.43 401.85 487.73 C 402.21 487.58 402.94 487.26 403.31 487.11 L 403.93 491.98 L 404.85 487.56 C 405.02 488.11 405.36 489.22 405.53 489.78 L 406.73 488.98 L 406.31 490.86 C 406.82 490.66 407.84 490.27 408.34 490.07 L 408.94 495.91 L 409.83 490.26 C 410.04 490.89 410.47 492.14 410.68 492.77 C 411.09 492.60 411.91 492.27 412.33 492.10 L 412.94 497.78 C 413.17 496.38 413.64 493.58 413.87 492.18 L 414.61 494.70 C 415.12 494.56 416.14 494.29 416.65 494.15 L 416.27 495.84 C 416.78 495.64 417.82 495.26 418.33 495.07 L 418.98 501.31 L 419.67 495.73 L 420.62 496.03 L 420.11 497.49 C 420.95 497.48 422.64 497.47 423.48 497.47 L 423.41 498.85 C 423.90 498.68 424.89 498.33 425.38 498.16 L 425.39 499.77 C 425.91 499.62 426.96 499.31 427.48 499.15 L 427.36 500.81 C 427.93 500.61 429.08 500.22 429.65 500.02 L 429.16 501.19 C 430.96 501.55 432.68 502.22 434.43 502.76 L 434.22 503.31 C 434.75 503.40 435.82 503.60 436.35 503.70 L 436.98 508.75 L 437.80 503.41 C 438.03 504.02 438.50 505.24 438.73 505.85 C 439.16 505.63 440.02 505.18 440.44 504.96 L 440.35 506.78 C 440.91 506.61 442.02 506.26 442.57 506.09 L 442.37 507.86 C 442.96 507.63 444.15 507.16 444.75 506.93 L 444.09 508.30 C 445.35 508.46 446.62 508.65 447.88 508.87 C 448.37 509.34 449.33 510.28 449.81 510.75 C 450.18 510.65 450.91 510.44 451.28 510.34 L 451.32 511.20 C 452.82 511.86 454.29 512.60 455.74 513.38 C 456.72 513.85 457.71 514.33 458.71 514.81 L 458.29 515.93 C 458.80 515.73 459.81 515.34 460.32 515.14 L 460.41 516.77 L 462.14 516.35 C 462.20 516.55 462.32 516.95 462.38 517.15 C 463.38 517.65 464.27 518.30 465.05 519.12 C 466.40 519.53 467.80 519.98 467.86 521.73 C 468.26 521.57 469.07 521.25 469.47 521.08 L 469.33 522.07 C 472.80 524.23 475.71 527.28 477.92 530.70 L 478.93 530.63 C 478.76 531.00 478.40 531.76 478.23 532.14 C 480.45 532.13 480.41 534.28 480.79 535.86 L 482.01 535.48 C 481.78 535.99 481.34 537.01 481.11 537.52 C 481.44 537.53 482.10 537.56 482.42 537.57 C 482.56 540.27 482.58 542.98 482.51 545.69 L 481.03 545.34 C 481.28 545.85 481.78 546.86 482.03 547.36 L 476.23 547.91 L 481.95 548.92 C 480.49 549.20 477.57 549.75 476.11 550.03 L 480.17 550.68 C 478.99 551.36 477.84 552.10 476.68 552.80 C 476.46 553.45 476.02 554.74 475.80 555.39 L 474.94 550.00 L 474.33 555.94 L 473.63 555.12 C 473.42 555.72 472.99 556.91 472.78 557.50 L 472.01 552.71 C 471.75 554.23 471.24 557.27 470.98 558.79 L 469.83 553.97 L 469.45 558.64 C 468.04 559.10 466.60 559.51 465.15 559.81 L 465.77 561.01 C 465.24 560.82 464.17 560.44 463.63 560.25 L 462.88 562.81 C 462.65 561.51 462.20 558.91 461.97 557.61 C 462.81 561.54 461.52 563.23 458.08 562.66 L 458.58 564.03 C 458.05 563.80 456.98 563.34 456.45 563.11 L 456.47 564.42 C 455.00 564.47 453.54 564.52 452.08 564.57 L 452.71 565.67 C 451.83 565.61 450.05 565.48 449.17 565.42 C 449.29 565.69 449.53 566.23 449.65 566.50 C 448.53 566.50 446.29 566.51 445.17 566.52 C 445.29 566.77 445.53 567.27 445.65 567.52 C 443.78 567.54 441.91 567.54 440.05 567.54 L 440.84 568.62 C 438.91 568.58 436.97 568.55 435.05 568.50 L 435.89 569.59 C 434.58 569.58 433.28 569.57 431.98 569.58 C 429.25 571.13 425.97 570.44 422.99 570.53 L 423.90 571.58 C 421.31 571.57 418.72 571.58 416.14 571.50 L 416.74 572.47 C 414.19 572.51 411.65 572.58 409.10 572.53 L 409.55 573.23 C 394.84 573.74 380.11 573.79 365.40 573.25 C 365.51 573.06 365.73 572.68 365.84 572.48 C 363.92 572.54 362.02 572.56 360.11 572.60 L 360.99 571.56 C 358.74 571.57 356.51 571.53 354.27 571.46 L 354.88 570.45 C 354.02 570.49 352.29 570.57 351.42 570.60 L 351.83 569.75 C 350.26 569.43 348.13 569.54 348.14 567.30 C 347.75 567.44 346.98 567.72 346.59 567.86 L 346.73 566.46 C 346.33 566.39 345.54 566.26 345.14 566.19 L 345.95 564.40 L 344.55 564.62 C 344.54 562.89 344.53 561.16 344.54 559.44 C 345.39 559.43 347.09 559.39 347.93 559.37 C 347.05 558.98 345.28 558.20 344.40 557.81 L 346.31 557.63 C 346.46 555.94 346.50 553.97 348.83 554.18 C 348.62 553.81 348.20 553.07 347.99 552.70 L 353.45 552.05 L 348.74 551.24 C 349.29 550.99 350.38 550.47 350.92 550.22 C 355.26 545.31 359.83 540.63 365.48 537.24 C 366.69 536.20 367.92 535.18 369.20 534.23 C 371.71 532.44 374.13 530.54 376.73 528.88 C 377.64 528.25 378.47 527.15 379.73 527.48 C 375.31 529.81 371.58 533.18 367.78 536.38 C 365.93 537.88 364.62 540.19 362.24 540.92 C 362.42 541.25 362.79 541.93 362.97 542.26 L 357.56 543.04 L 362.24 543.74 C 361.28 544.29 360.31 544.84 359.34 545.39 L 359.89 546.27 L 353.82 547.07 L 359.54 547.73 C 358.98 547.95 357.84 548.40 357.27 548.62 C 357.37 549.06 357.56 549.94 357.66 550.38 L 356.13 550.46 C 356.35 551.01 356.81 552.09 357.04 552.63 L 355.54 552.10 C 355.56 554.02 355.56 555.95 355.54 557.89 L 357.00 557.43 C 356.78 557.97 356.33 559.06 356.11 559.61 L 357.82 559.45 C 357.68 560.03 357.40 561.19 357.27 561.77 C 357.78 561.62 358.81 561.31 359.33 561.15 L 359.96 567.32 L 360.78 561.52 C 361.00 562.10 361.44 563.25 361.66 563.82 C 362.10 563.65 363.00 563.31 363.44 563.14 L 363.17 564.51 C 364.05 564.49 365.82 564.46 366.71 564.44 L 366.09 565.47 C 367.98 565.44 369.89 565.47 371.79 565.48 L 371.06 566.49 C 381.69 566.41 392.32 566.36 402.96 566.49 L 402.08 565.46 C 405.37 565.44 408.67 565.37 411.97 565.48 L 411.11 564.43 C 413.39 564.44 415.66 564.42 417.95 564.48 L 417.20 563.48 C 419.46 563.45 421.70 563.41 423.96 563.46 L 423.13 562.32 C 424.72 562.39 426.31 562.46 427.90 562.54 L 427.23 561.34 C 428.13 561.40 429.91 561.52 430.80 561.58 C 430.72 561.31 430.54 560.78 430.46 560.51 C 431.57 560.51 433.79 560.51 434.91 560.52 L 434.13 559.70 L 444.90 559.00 L 434.53 558.34 L 434.14 554.42 L 433.33 557.85 C 432.07 557.20 430.78 556.62 429.46 556.13 L 429.69 555.24 C 429.13 555.38 428.00 555.67 427.44 555.81 L 427.73 554.23 C 427.22 554.38 426.20 554.69 425.69 554.84 L 425.01 549.88 C 424.85 550.98 424.51 553.17 424.35 554.27 C 419.62 553.25 421.65 539.20 420.26 552.46 C 420.07 552.01 419.70 551.10 419.51 550.64 C 418.61 550.21 417.71 549.78 416.82 549.35 C 414.29 548.18 413.33 545.62 414.05 542.64 L 413.08 548.10 C 412.81 546.31 412.27 542.73 412.00 540.94 L 411.20 546.53 C 410.97 545.71 410.51 544.07 410.28 543.25 C 409.87 543.39 409.06 543.67 408.65 543.81 L 408.59 542.25 L 407.02 542.63 L 408.87 540.80 L 405.72 542.28 L 408.27 539.75 L 404.53 541.29 L 407.32 539.19 L 404.05 539.71 L 405.42 536.64 L 402.54 539.44 L 404.91 535.18 L 401.70 538.35 L 402.93 536.11 L 400.66 537.18 L 403.43 534.85 L 401.11 535.70 C 400.02 534.07 398.68 532.61 397.00 531.59 L 401.90 531.04 C 400.28 530.76 397.02 530.19 395.39 529.91 L 399.40 528.94 C 397.93 528.69 395.00 528.18 393.53 527.92 L 398.09 526.94 L 393.66 526.37 C 393.56 525.82 393.38 524.72 393.29 524.17 L 391.95 524.81 L 392.71 523.40 L 390.41 522.97 C 391.48 522.68 393.62 522.11 394.69 521.82 L 390.30 521.45 L 390.57 520.78 C 390.26 520.28 389.63 519.27 389.32 518.77 C 388.11 516.32 386.54 513.95 386.20 511.18 L 385.07 511.62 C 385.25 511.04 385.62 509.87 385.80 509.28 L 384.44 509.60 C 384.46 508.74 384.48 507.00 384.49 506.13 L 382.94 506.58 C 383.19 506.04 383.68 504.97 383.92 504.43 L 382.56 504.54 C 382.54 503.69 382.51 502.00 382.49 501.15 L 381.67 501.55 C 381.60 500.86 381.47 499.48 381.40 498.78 C 380.49 497.05 380.38 495.07 380.37 493.16 C 380.15 493.29 379.72 493.56 379.51 493.69 C 379.45 491.47 379.42 489.25 379.45 487.03 L 378.32 487.87 C 378.40 486.27 378.47 484.68 378.57 483.10 L 377.71 483.68 C 377.49 479.86 377.30 476.05 377.50 472.23 C 377.29 472.31 376.88 472.47 376.67 472.55 C 376.66 468.11 376.66 463.67 376.67 459.24 L 377.49 459.94 C 377.30 455.74 377.48 451.54 377.74 447.35 L 378.56 447.90 C 378.47 446.30 378.40 444.71 378.33 443.13 L 379.43 443.98 C 379.38 441.41 379.47 438.84 379.66 436.29 L 382.77 436.82 C 382.15 436.48 380.90 435.80 380.27 435.46 C 380.33 434.88 380.43 433.72 380.49 433.14 L 381.44 433.96 C 381.43 432.10 381.49 430.25 381.55 428.41 L 382.54 428.84 C 382.51 427.97 382.45 426.21 382.42 425.33 L 383.55 425.88 C 383.50 424.98 383.41 423.19 383.36 422.29 L 384.53 422.92 C 384.49 422.00 384.41 420.18 384.37 419.26 L 385.25 419.97 Z" />
<path fill="#ffffff" opacity="1.00" d=" M 911.45 433.45 C 947.52 433.54 983.60 433.60 1019.67 433.41 C 1019.57 435.43 1019.54 437.45 1019.54 439.48 L 1015.54 439.81 L 1019.26 440.83 C 1018.41 441.54 1017.55 442.23 1016.69 442.93 C 1016.48 443.81 1016.28 444.70 1016.09 445.60 L 1015.31 445.80 C 1014.37 446.97 1013.18 447.85 1011.81 448.41 C 1010.69 449.13 1009.47 449.59 1008.15 449.80 L 1008.57 450.46 C 981.38 450.72 954.19 450.49 927.01 450.58 C 924.56 450.42 919.95 451.27 923.05 445.49 C 922.81 446.83 922.33 449.51 922.09 450.85 L 921.42 448.32 C 920.91 448.45 919.87 448.70 919.35 448.83 L 919.78 447.89 C 917.41 446.89 914.77 444.99 915.26 442.01 L 913.94 444.40 L 914.45 442.02 L 913.41 442.44 C 913.45 441.62 913.52 439.96 913.55 439.13 L 912.21 439.76 C 912.32 438.88 912.55 437.12 912.67 436.24 L 911.61 436.68 C 911.55 435.59 911.49 434.52 911.45 433.45 Z" />
<path fill="#ffffff" opacity="1.00" d=" M 656.36 467.50 C 663.10 467.65 669.86 467.64 676.61 467.51 C 676.52 495.52 676.49 523.54 676.63 551.56 C 669.87 551.41 663.10 551.40 656.34 551.56 C 656.48 523.55 656.45 495.52 656.36 467.50 Z" />
<path fill="#ffffff" opacity="1.00" d=" M 686.36 467.51 C 698.36 467.65 710.36 467.64 722.36 467.56 L 722.98 472.73 L 723.59 468.21 C 724.62 468.32 726.69 468.54 727.73 468.65 C 727.59 468.78 727.33 469.05 727.20 469.19 C 728.92 469.53 730.56 470.18 732.23 470.74 C 732.31 471.00 732.46 471.53 732.54 471.80 L 733.84 471.12 L 733.22 472.75 C 733.73 472.64 734.74 472.41 735.25 472.30 L 735.33 473.66 L 736.63 473.45 L 736.37 474.94 L 737.85 474.17 L 737.07 475.49 L 738.52 475.45 L 738.51 476.86 L 739.67 476.31 L 739.39 477.79 L 740.98 477.67 C 740.78 478.03 740.39 478.76 740.20 479.13 C 742.44 479.14 742.47 481.24 742.80 482.91 L 743.99 482.43 L 744.17 483.34 L 738.82 484.01 L 744.69 484.67 C 744.62 485.45 744.46 487.02 744.38 487.81 L 745.48 487.31 C 745.76 508.72 745.41 530.15 745.66 551.56 C 738.93 551.38 732.19 551.44 725.47 551.53 C 725.58 531.27 725.57 511.01 725.47 490.75 C 724.00 490.66 723.26 489.87 723.25 488.39 C 722.52 488.47 721.07 488.64 720.34 488.72 L 720.91 487.52 C 716.10 487.59 711.29 487.66 706.48 487.48 C 706.76 508.84 706.41 530.21 706.66 551.56 C 699.89 551.40 693.11 551.40 686.34 551.56 C 686.48 523.55 686.45 495.52 686.36 467.51 Z" />
<path fill="#ffffff" opacity="1.00" d=" M 755.61 467.56 C 767.63 467.58 779.64 467.68 791.66 467.56 L 791.44 471.40 C 790.95 467.03 794.60 468.76 796.75 468.40 L 796.08 469.51 C 796.96 469.49 798.72 469.44 799.60 469.42 L 799.37 470.91 C 799.98 470.65 801.19 470.12 801.79 469.86 L 799.11 473.36 L 802.69 470.65 L 802.27 472.71 C 802.79 472.58 803.82 472.34 804.34 472.21 L 804.95 477.02 L 805.72 472.96 C 806.37 474.09 807.08 475.21 807.76 476.34 C 808.40 476.55 809.69 476.97 810.34 477.19 L 805.34 478.07 L 810.90 478.66 L 810.13 479.51 C 810.55 479.59 811.38 479.76 811.79 479.84 L 811.12 481.54 L 812.79 481.55 C 812.66 482.09 812.40 483.18 812.26 483.73 L 813.65 483.42 C 813.60 484.26 813.48 485.96 813.43 486.81 C 813.73 486.68 814.35 486.44 814.65 486.31 C 814.60 487.45 814.51 489.73 814.46 490.87 L 815.41 490.28 C 815.58 510.69 815.34 531.11 815.53 551.53 C 808.80 551.44 802.07 551.39 795.34 551.56 C 795.56 532.09 795.29 512.61 795.48 493.13 L 794.36 493.53 C 794.41 493.17 794.53 492.45 794.59 492.09 C 794.19 490.59 793.40 487.58 793.00 486.07 L 792.23 490.34 C 792.01 489.80 791.57 488.71 791.35 488.17 C 790.87 488.33 789.92 488.64 789.44 488.80 L 789.88 487.52 C 785.37 487.60 780.86 487.64 776.36 487.50 C 776.31 508.83 776.28 530.16 776.37 551.50 C 769.44 551.45 762.52 551.43 755.60 551.50 C 755.69 523.52 755.67 495.54 755.61 467.56 Z" />
<path fill="#ffffff" opacity="1.00" d=" M 855.53 467.73 C 859.91 467.69 864.42 467.08 868.68 468.44 C 869.65 468.48 871.58 468.57 872.54 468.62 C 872.46 468.85 872.29 469.31 872.20 469.54 C 872.99 469.51 874.57 469.45 875.35 469.42 L 875.96 473.88 L 876.63 470.03 C 877.71 470.63 878.82 471.24 879.94 471.83 C 880.88 472.30 881.83 472.78 882.79 473.28 C 885.09 474.38 885.82 476.59 885.00 479.90 L 885.66 474.56 L 886.67 475.08 L 886.10 476.00 C 890.10 478.38 893.66 481.93 895.98 485.96 C 896.79 486.64 897.41 487.48 897.85 488.46 C 898.25 488.66 899.07 489.06 899.47 489.25 L 894.10 490.01 L 899.34 490.64 C 899.43 491.18 899.61 492.26 899.69 492.80 L 900.60 492.48 C 900.57 493.33 900.50 495.02 900.47 495.87 L 901.71 495.30 C 901.60 496.50 901.49 497.70 901.40 498.91 L 902.53 498.24 C 902.52 499.38 902.51 501.66 902.51 502.79 C 902.71 502.72 903.12 502.57 903.32 502.49 C 903.55 506.91 903.54 511.34 903.42 515.76 L 902.52 515.07 C 902.54 516.95 902.55 518.85 902.56 520.74 L 901.68 520.05 C 901.63 521.80 901.52 523.59 900.45 525.06 C 900.54 525.42 900.73 526.13 900.82 526.48 L 899.71 526.17 C 899.62 526.71 899.44 527.81 899.35 528.35 L 895.12 528.97 C 896.24 529.19 898.49 529.63 899.62 529.85 L 897.25 530.60 L 897.66 532.13 C 897.30 532.22 896.59 532.40 896.23 532.50 L 896.70 533.41 L 892.18 533.86 L 896.27 534.90 C 895.51 535.10 894.00 535.50 893.24 535.70 C 893.38 536.10 893.67 536.89 893.82 537.28 L 892.34 537.36 L 892.39 538.78 C 891.87 538.65 890.81 538.41 890.28 538.29 C 890.37 538.67 890.54 539.44 890.62 539.82 C 889.10 540.96 887.74 542.29 886.61 543.81 L 885.98 539.90 L 885.33 544.68 L 884.49 544.23 C 884.39 544.59 884.19 545.30 884.10 545.66 L 882.68 545.21 C 882.45 545.80 881.99 546.96 881.76 547.55 L 881.02 542.18 C 880.75 543.85 880.23 547.19 879.97 548.85 L 878.94 543.81 C 879.70 547.59 878.42 549.20 875.10 548.64 L 875.67 549.71 C 874.81 549.63 873.08 549.47 872.22 549.39 L 872.63 550.46 C 871.39 550.49 870.16 550.54 868.95 550.60 C 864.56 552.13 859.83 551.25 855.30 551.34 L 855.93 550.55 C 854.07 550.55 852.20 550.49 850.37 550.45 C 850.49 550.20 850.74 549.71 850.87 549.46 C 849.98 549.50 848.21 549.56 847.32 549.59 L 847.86 548.83 C 846.03 548.44 844.30 547.77 842.53 547.23 L 842.52 546.14 L 841.16 546.65 C 840.03 545.61 838.64 544.77 838.02 543.30 C 837.69 543.47 837.03 543.80 836.70 543.97 L 836.04 538.10 L 835.22 543.36 C 834.99 542.75 834.54 541.55 834.32 540.94 C 831.82 539.29 829.82 537.00 828.12 534.57 C 827.67 534.37 826.78 533.95 826.33 533.75 L 831.71 532.98 C 830.22 532.80 827.24 532.45 825.74 532.28 C 825.65 531.07 825.47 528.66 825.37 527.45 L 823.95 530.57 C 824.11 529.70 824.42 527.97 824.58 527.10 L 823.08 527.74 C 823.24 527.13 823.57 525.91 823.74 525.30 L 822.05 525.51 C 822.25 524.98 822.66 523.91 822.86 523.38 L 821.55 523.54 C 821.49 522.06 821.46 520.59 821.46 519.12 L 820.52 519.70 C 820.37 512.89 820.34 506.07 820.54 499.27 L 821.28 499.93 C 821.30 497.64 822.05 495.51 822.69 493.36 L 823.84 493.66 C 823.64 493.10 823.25 491.97 823.06 491.41 L 824.79 491.68 C 824.60 491.10 824.22 489.92 824.03 489.34 L 825.24 489.86 C 825.35 489.31 825.57 488.23 825.68 487.68 L 829.12 487.02 L 825.75 486.14 C 826.23 486.00 827.18 485.72 827.66 485.57 L 827.37 484.37 L 828.41 484.99 L 827.98 482.58 L 829.31 485.38 C 828.78 480.66 834.25 478.97 836.36 475.47 L 837.01 481.07 C 837.19 479.39 837.53 476.04 837.71 474.36 C 838.21 474.45 839.22 474.61 839.72 474.70 L 839.45 473.23 C 840.03 473.34 841.19 473.57 841.77 473.69 L 841.34 472.08 C 841.94 472.26 843.14 472.60 843.74 472.78 L 843.31 471.11 C 843.90 471.26 845.09 471.58 845.68 471.73 L 845.53 469.96 C 846.05 470.21 847.08 470.72 847.60 470.97 L 847.40 469.54 C 848.88 469.49 850.38 469.46 851.89 469.45 L 851.27 468.45 C 852.77 468.45 854.28 468.47 855.80 468.50 L 855.53 467.73 M 854.55 490.04 C 854.09 489.83 853.16 489.39 852.69 489.17 C 852.47 489.77 852.01 490.96 851.78 491.55 L 850.97 485.73 L 850.29 491.97 C 849.94 491.78 849.23 491.41 848.87 491.22 C 848.67 492.58 847.93 493.43 846.65 493.77 L 846.58 494.59 L 845.75 494.64 C 845.45 495.95 844.60 496.69 843.21 496.86 C 843.40 497.22 843.78 497.95 843.97 498.31 L 838.74 498.94 C 839.98 499.17 842.46 499.65 843.70 499.89 L 841.49 500.45 C 841.48 501.21 841.46 502.71 841.45 503.47 L 840.56 503.20 C 840.31 507.42 840.29 511.65 840.57 515.87 L 841.39 515.48 C 841.43 516.33 841.51 518.01 841.55 518.85 L 842.97 518.67 L 843.09 519.32 L 838.70 520.00 L 843.31 520.66 C 843.42 521.10 843.62 521.98 843.73 522.42 C 844.29 522.57 845.42 522.87 845.98 523.03 L 842.46 524.77 L 846.87 524.08 L 843.79 527.52 L 847.62 524.77 L 847.27 526.15 C 847.89 526.48 849.13 527.14 849.75 527.47 L 850.03 527.43 C 850.98 528.19 851.94 528.96 852.92 529.72 C 853.31 529.56 854.09 529.25 854.47 529.09 L 854.17 530.55 C 855.09 530.49 856.93 530.38 857.85 530.32 L 857.05 531.48 C 860.01 531.39 862.98 531.39 865.95 531.47 L 865.19 530.34 C 866.09 530.40 867.88 530.53 868.78 530.59 L 868.47 529.79 C 868.95 529.62 869.91 529.26 870.40 529.08 L 871.00 532.86 C 871.22 531.48 871.66 528.72 871.88 527.35 L 872.59 528.16 C 873.57 526.80 874.98 525.93 876.71 526.11 L 876.09 524.55 L 877.26 524.89 C 877.56 524.38 878.15 523.36 878.44 522.84 C 879.07 522.21 879.74 521.61 880.46 521.06 C 880.33 520.43 880.08 519.18 879.96 518.55 L 881.49 521.42 C 881.49 520.19 881.49 517.74 881.49 516.51 L 882.54 516.81 C 882.51 515.92 882.45 514.14 882.42 513.24 L 883.48 513.94 C 883.39 510.97 883.39 508.01 883.48 505.06 L 882.39 505.77 C 882.43 504.88 882.52 503.11 882.56 502.22 L 881.49 502.50 C 881.49 501.75 881.50 500.25 881.51 499.50 L 879.08 498.90 C 880.44 498.66 883.15 498.18 884.51 497.94 C 881.37 498.74 879.28 498.03 878.24 495.82 C 877.99 495.43 877.50 494.65 877.26 494.26 L 876.30 494.56 L 876.88 490.96 L 875.56 494.09 L 875.16 488.40 L 874.06 493.37 C 873.80 491.82 873.26 488.73 872.99 487.19 L 872.33 491.33 C 871.79 490.81 870.73 489.77 870.19 489.25 C 869.77 489.42 868.93 489.75 868.51 489.92 L 868.87 488.59 C 863.95 488.21 859.03 488.27 854.12 488.60 L 854.55 490.04 Z" />
<path fill="#ffffff" opacity="1.00" d=" M 897.31 467.51 C 904.07 467.68 910.84 467.57 917.61 467.58 C 917.58 468.41 917.50 470.07 917.47 470.90 L 918.64 470.32 C 918.59 471.22 918.49 473.03 918.43 473.93 L 919.52 473.20 C 919.52 474.13 919.52 476.01 919.52 476.95 C 919.77 476.78 920.26 476.44 920.51 476.26 C 920.52 477.19 920.53 479.05 920.53 479.99 L 921.52 479.33 C 921.51 480.22 921.50 481.99 921.50 482.88 L 922.50 482.41 C 922.50 483.26 922.49 484.98 922.48 485.83 L 923.47 485.45 C 923.47 486.29 923.49 487.98 923.50 488.82 L 924.44 488.51 C 924.48 489.97 924.52 491.44 924.56 492.91 L 925.67 492.26 C 925.62 493.17 925.50 494.98 925.44 495.89 L 926.64 495.28 C 926.59 496.18 926.50 497.98 926.45 498.88 L 927.61 498.31 C 927.57 499.21 927.50 501.00 927.46 501.90 L 928.57 501.31 C 928.55 502.20 928.50 504.00 928.48 504.89 L 929.57 504.35 C 929.54 505.23 929.49 506.97 929.46 507.85 C 929.72 507.72 930.23 507.48 930.49 507.35 C 930.50 508.25 930.52 510.05 930.53 510.95 L 931.50 510.38 C 931.50 511.24 931.48 512.96 931.47 513.82 L 932.31 513.43 C 932.45 514.74 932.61 516.05 932.80 517.37 L 929.37 518.10 C 931.40 518.31 933.43 518.51 935.49 518.71 C 935.46 517.26 935.46 515.81 935.47 514.37 L 936.52 514.88 C 936.50 513.99 936.45 512.20 936.43 511.30 L 937.48 511.99 C 937.47 511.06 937.46 509.20 937.46 508.28 C 937.73 508.42 938.29 508.72 938.57 508.87 C 938.52 507.98 938.41 506.20 938.36 505.31 L 939.55 505.88 C 939.50 504.98 939.40 503.17 939.36 502.27 L 940.56 502.89 C 940.50 501.98 940.38 500.15 940.32 499.24 L 941.43 499.93 C 941.45 498.43 941.50 496.93 941.56 495.45 L 942.50 495.85 C 942.51 494.99 942.52 493.28 942.53 492.42 L 943.49 492.88 C 943.50 492.00 943.51 490.26 943.51 489.38 L 944.55 489.83 C 944.52 488.98 944.46 487.26 944.43 486.40 L 945.47 486.91 C 945.48 485.98 945.49 484.14 945.50 483.22 L 946.56 483.92 C 946.51 483.02 946.43 481.23 946.38 480.34 L 947.54 480.88 C 947.50 479.98 947.42 478.19 947.38 477.30 L 948.55 477.89 C 948.50 476.98 948.40 475.17 948.35 474.27 L 949.58 474.90 C 949.51 474.02 949.37 472.26 949.30 471.37 C 949.59 471.47 950.17 471.67 950.47 471.78 C 950.47 470.38 950.50 468.99 950.56 467.60 C 957.26 467.54 963.98 467.69 970.69 467.51 C 970.59 468.89 970.51 470.28 970.46 471.67 L 969.45 471.13 C 969.49 472.02 969.57 473.79 969.61 474.68 L 968.46 474.11 C 968.50 475.01 968.58 476.81 968.62 477.71 L 967.44 477.11 C 967.50 478.02 967.62 479.84 967.68 480.75 L 966.72 480.05 C 966.59 481.70 966.44 483.40 965.59 484.88 C 965.54 485.55 965.42 486.89 965.36 487.56 L 964.50 487.14 C 964.49 488.00 964.48 489.72 964.47 490.58 L 963.47 490.17 C 963.48 491.01 963.52 492.70 963.53 493.54 L 962.46 493.20 C 962.49 494.05 962.53 495.76 962.56 496.62 L 961.48 496.12 C 961.50 497.01 961.54 498.78 961.57 499.66 L 960.47 499.11 C 960.50 500.01 960.57 501.79 960.60 502.68 L 959.46 502.11 C 959.50 503.01 959.58 504.81 959.62 505.71 L 958.45 505.11 C 958.50 506.01 958.61 507.82 958.66 508.73 L 957.54 508.10 C 957.52 509.15 957.48 511.25 957.46 512.30 C 957.21 512.32 956.71 512.34 956.46 512.36 C 956.46 513.15 956.47 514.75 956.48 515.55 L 955.52 515.11 C 955.50 515.97 955.48 517.69 955.46 518.55 C 955.21 518.47 954.70 518.32 954.44 518.24 C 954.47 519.07 954.52 520.71 954.55 521.54 L 953.46 521.20 C 953.48 522.05 953.54 523.75 953.56 524.60 L 952.47 524.14 C 952.50 525.02 952.55 526.78 952.57 527.66 L 951.47 527.12 C 951.50 528.01 951.56 529.79 951.60 530.68 L 950.45 530.12 C 950.50 531.01 950.59 532.81 950.63 533.70 L 949.45 533.11 C 949.50 534.01 949.61 535.83 949.66 536.73 L 948.56 536.09 C 948.52 537.54 948.47 539.00 948.43 540.46 L 947.51 540.18 C 947.49 541.02 947.45 542.71 947.44 543.55 L 946.49 543.18 C 946.49 544.02 946.48 545.72 946.48 546.57 L 945.48 546.16 C 945.49 547.01 945.50 548.69 945.51 549.53 L 944.14 549.39 C 944.34 549.91 944.75 550.94 944.95 551.46 C 937.77 551.47 930.59 551.45 923.42 551.47 C 923.44 550.63 923.50 548.95 923.53 548.11 L 922.42 548.66 C 922.44 547.77 922.50 545.99 922.53 545.10 L 921.46 545.68 C 921.48 544.80 921.50 543.04 921.51 542.16 L 920.46 542.56 C 920.48 541.71 920.51 540.00 920.53 539.15 L 919.53 539.61 C 919.52 538.74 919.50 537.00 919.49 536.13 L 918.54 536.55 C 918.53 535.71 918.51 534.03 918.51 533.19 L 917.56 533.48 C 917.50 532.01 917.46 530.54 917.44 529.08 L 916.32 529.73 C 916.38 528.83 916.50 527.02 916.56 526.11 L 915.37 526.73 C 915.41 525.82 915.50 524.01 915.54 523.11 L 914.39 523.69 C 914.43 522.80 914.50 521.02 914.54 520.12 L 913.41 520.65 C 913.44 519.77 913.50 518.00 913.54 517.11 L 912.47 517.67 C 912.48 516.78 912.49 515.00 912.50 514.10 L 911.47 514.60 C 911.48 513.73 911.51 512.00 911.53 511.13 L 910.64 511.63 C 910.57 510.90 910.43 509.45 910.37 508.72 C 909.88 507.58 909.49 506.41 909.17 505.23 L 908.56 505.48 C 908.50 504.00 908.46 502.54 908.44 501.08 L 907.33 501.74 C 907.39 500.83 907.50 499.02 907.56 498.11 L 906.36 498.71 C 906.41 497.81 906.50 496.01 906.55 495.11 L 905.40 495.70 C 905.43 494.80 905.50 493.01 905.53 492.12 L 904.39 492.64 C 904.43 491.76 904.52 489.98 904.56 489.09 L 903.52 489.76 C 903.50 488.84 903.48 487.02 903.47 486.10 L 902.44 486.58 C 902.47 485.73 902.52 484.03 902.55 483.18 L 901.53 483.59 C 901.52 482.73 901.50 481.00 901.49 480.13 L 900.55 480.56 C 900.54 479.71 900.51 478.02 900.49 477.17 L 899.56 477.49 C 899.50 476.01 899.46 474.55 899.44 473.09 L 898.33 473.74 C 898.39 472.83 898.51 471.02 898.57 470.11 L 897.51 470.75 C 897.44 469.66 897.37 468.58 897.31 467.51 Z" />
<path fill="#ffffff" opacity="1.00" d=" M 987.28 467.51 C 994.16 467.69 1001.04 467.54 1007.93 467.60 C 1007.73 468.09 1007.34 469.07 1007.15 469.56 L 1008.41 469.54 C 1008.46 470.98 1008.50 472.43 1008.55 473.88 C 1008.79 473.74 1009.26 473.44 1009.49 473.29 C 1009.50 474.20 1009.51 476.01 1009.52 476.92 L 1010.42 476.47 C 1010.46 477.95 1010.51 479.44 1010.56 480.94 L 1011.47 480.23 C 1011.49 481.14 1011.51 482.97 1011.53 483.89 L 1012.42 483.49 C 1012.46 484.96 1012.50 486.44 1012.55 487.93 L 1013.38 487.21 C 1013.44 487.96 1013.56 489.45 1013.62 490.20 C 1014.41 491.67 1014.58 493.29 1014.73 494.95 L 1015.53 494.31 C 1015.52 495.20 1015.50 496.96 1015.48 497.84 L 1016.41 497.49 C 1016.46 498.96 1016.51 500.44 1016.56 501.92 L 1017.51 501.29 C 1017.51 502.17 1017.50 503.94 1017.49 504.82 L 1018.42 504.51 C 1018.46 505.98 1018.51 507.46 1018.56 508.94 L 1019.49 508.24 C 1019.49 509.12 1019.50 510.90 1019.50 511.79 C 1019.73 511.74 1020.19 511.62 1020.42 511.57 C 1020.46 512.66 1020.53 514.85 1020.56 515.94 L 1021.51 515.28 C 1021.51 516.17 1021.50 517.95 1021.49 518.83 L 1022.42 518.50 C 1022.46 519.98 1022.51 521.45 1022.56 522.94 L 1023.48 522.23 C 1023.49 523.14 1023.51 524.96 1023.52 525.86 L 1024.42 525.50 C 1024.46 526.97 1024.51 528.45 1024.56 529.94 L 1025.49 529.25 C 1025.49 530.15 1025.51 531.96 1025.51 532.86 L 1026.42 532.50 C 1026.46 533.97 1026.50 535.45 1026.55 536.94 L 1027.39 536.22 C 1027.44 536.96 1027.56 538.44 1027.62 539.18 C 1028.44 540.64 1028.57 542.27 1028.70 543.92 C 1028.90 543.75 1029.29 543.42 1029.49 543.25 C 1029.50 544.17 1029.51 545.99 1029.52 546.91 L 1030.34 546.46 C 1030.46 548.15 1030.58 549.85 1030.73 551.55 C 1006.26 551.41 981.78 551.40 957.32 551.56 C 957.35 550.40 957.39 549.25 957.44 548.11 L 958.44 548.95 C 958.44 547.09 958.48 545.25 958.55 543.41 C 958.80 543.51 959.32 543.72 959.57 543.82 C 959.51 542.93 959.40 541.15 959.35 540.27 L 960.49 540.90 C 960.45 539.36 960.44 537.83 960.44 536.31 L 961.48 536.89 C 961.46 535.38 961.46 533.88 961.48 532.38 L 962.46 532.86 C 962.46 531.36 962.49 529.87 962.54 528.38 L 963.45 528.88 C 963.48 527.78 963.55 525.58 963.58 524.48 C 963.83 524.56 964.31 524.71 964.55 524.79 C 964.51 523.92 964.43 522.17 964.39 521.30 L 965.48 521.89 C 965.46 520.37 965.46 518.86 965.47 517.35 L 966.47 517.87 C 966.48 516.76 966.50 514.53 966.52 513.42 C 966.75 513.52 967.23 513.72 967.47 513.81 C 967.49 512.74 967.53 510.59 967.55 509.52 C 967.81 509.58 968.31 509.70 968.56 509.76 C 968.52 508.89 968.42 507.15 968.38 506.28 L 969.48 506.90 C 969.46 505.37 969.45 503.85 969.46 502.33 L 970.45 502.90 C 970.46 501.37 970.48 499.85 970.53 498.34 L 971.93 498.87 L 971.13 497.63 C 978.28 497.70 985.44 497.74 992.59 497.61 C 992.57 498.15 992.52 499.23 992.49 499.77 L 991.56 499.07 C 991.53 500.92 991.49 502.79 991.44 504.65 C 991.23 504.52 990.79 504.27 990.58 504.14 C 990.51 505.90 990.43 507.68 990.34 509.45 L 989.54 509.18 C 989.50 510.24 989.44 512.36 989.41 513.42 C 989.16 513.39 988.66 513.33 988.40 513.30 C 988.48 514.18 988.63 515.93 988.71 516.81 L 987.54 516.06 C 987.54 517.92 987.54 519.79 987.53 521.67 C 987.29 521.54 986.80 521.29 986.55 521.16 C 986.53 522.96 986.47 524.77 986.42 526.59 L 985.59 526.12 C 985.52 527.91 985.43 529.70 985.32 531.50 C 991.09 531.37 996.86 531.36 1002.63 531.51 C 1002.58 530.40 1002.47 528.19 1002.41 527.08 L 1001.59 527.56 C 1001.52 526.08 1001.48 524.61 1001.45 523.15 L 1000.58 523.55 C 1000.53 522.11 1000.49 520.69 1000.47 519.27 C 1000.25 519.31 999.80 519.40 999.57 519.45 C 999.55 518.40 999.50 516.31 999.48 515.26 C 999.25 515.30 998.80 515.39 998.58 515.43 C 998.55 514.36 998.49 512.22 998.46 511.16 L 997.59 511.53 C 997.52 510.07 997.48 508.61 997.45 507.15 L 996.59 507.54 C 996.52 506.06 996.48 504.59 996.45 503.13 L 995.59 503.56 C 995.53 502.12 995.49 500.68 995.47 499.25 C 995.25 499.30 994.80 499.41 994.57 499.46 C 994.54 498.38 994.49 496.22 994.46 495.14 L 993.58 495.60 C 993.52 494.13 993.48 492.67 993.47 491.22 C 993.24 491.29 992.79 491.44 992.57 491.51 C 992.54 490.42 992.49 488.26 992.47 487.17 L 991.58 487.55 C 991.52 486.07 991.47 484.59 991.45 483.12 L 990.58 483.57 C 990.52 482.09 990.48 480.61 990.45 479.14 L 989.58 479.57 C 989.52 478.08 989.47 476.61 989.45 475.14 L 988.57 475.56 C 988.52 474.10 988.48 472.63 988.47 471.18 C 988.27 471.28 987.87 471.47 987.68 471.57 C 987.54 470.21 987.41 468.86 987.28 467.51 Z" />
<path fill="#ffffff" opacity="1.00" d=" M 1030.36 467.51 C 1050.12 467.65 1069.88 467.65 1089.64 467.50 C 1089.57 474.23 1089.48 480.97 1089.70 487.70 C 1069.90 487.50 1050.09 487.51 1030.30 487.70 C 1030.52 480.97 1030.43 474.23 1030.36 467.51 Z" />
<path fill="#ffffff" opacity="1.00" d=" M 1095.61 467.56 C 1102.52 467.62 1109.44 467.61 1116.36 467.56 C 1116.30 495.54 1116.28 523.52 1116.37 551.50 C 1109.44 551.45 1102.52 551.43 1095.60 551.50 C 1095.69 523.52 1095.67 495.54 1095.61 467.56 Z" />
<path fill="#ffffff" opacity="1.00" d=" M 1150.50 468.59 C 1152.29 468.51 1154.12 468.46 1155.94 468.45 L 1155.33 467.71 C 1159.12 467.59 1162.91 467.58 1166.71 467.65 C 1166.56 467.85 1166.27 468.26 1166.12 468.47 C 1168.34 468.37 1170.72 468.23 1172.75 469.38 C 1173.46 469.44 1174.89 469.55 1175.60 469.60 L 1175.39 470.92 C 1175.92 470.68 1176.98 470.22 1177.51 469.99 L 1177.36 471.84 C 1177.86 471.64 1178.85 471.23 1179.35 471.02 L 1179.97 476.91 L 1180.69 471.63 L 1181.65 472.08 L 1181.10 473.16 C 1183.17 473.33 1184.76 474.65 1186.40 475.80 L 1186.95 480.33 L 1187.81 475.73 C 1188.02 476.31 1188.46 477.48 1188.67 478.06 C 1191.16 479.70 1193.17 481.97 1194.87 484.40 C 1195.32 484.62 1196.23 485.04 1196.68 485.26 L 1191.31 486.02 C 1194.78 485.53 1198.18 486.06 1197.75 489.93 L 1199.06 489.19 C 1198.84 489.80 1198.39 491.04 1198.17 491.66 L 1200.00 491.37 C 1199.79 491.93 1199.38 493.05 1199.17 493.61 L 1200.99 493.51 C 1200.77 494.03 1200.33 495.08 1200.11 495.60 L 1201.52 495.46 C 1201.51 496.29 1201.48 497.94 1201.47 498.77 L 1202.39 498.53 C 1202.46 500.30 1202.51 502.06 1202.57 503.84 L 1203.29 503.50 C 1203.41 507.52 1203.43 511.55 1203.29 515.58 C 1203.10 515.49 1202.72 515.30 1202.53 515.20 C 1202.51 516.97 1202.47 518.74 1202.42 520.52 C 1202.18 520.44 1201.69 520.29 1201.45 520.22 C 1201.48 521.07 1201.55 522.78 1201.58 523.63 L 1200.82 523.10 C 1200.60 524.48 1200.16 525.78 1199.50 527.01 C 1199.52 527.35 1199.57 528.01 1199.59 528.34 L 1198.16 528.50 L 1198.70 530.13 C 1198.48 530.19 1198.02 530.32 1197.80 530.38 C 1197.47 531.78 1196.62 532.61 1195.24 532.90 C 1195.45 533.31 1195.86 534.14 1196.07 534.55 L 1194.94 534.26 C 1192.72 538.35 1188.65 540.93 1185.63 544.37 L 1185.00 539.30 C 1185.83 542.75 1184.98 544.90 1182.44 545.75 C 1182.28 546.14 1181.97 546.91 1181.81 547.30 C 1180.98 539.63 1181.21 548.36 1178.07 548.31 C 1177.74 548.47 1177.08 548.78 1176.75 548.93 L 1175.66 545.44 L 1175.56 549.54 C 1174.68 549.53 1172.93 549.52 1172.06 549.52 L 1172.67 550.47 C 1171.15 550.48 1169.65 550.51 1168.17 550.52 L 1168.47 551.26 C 1164.10 551.50 1159.74 551.50 1155.39 551.36 C 1155.49 551.13 1155.70 550.68 1155.81 550.45 C 1154.25 550.52 1152.70 550.60 1151.17 550.67 L 1151.92 549.49 C 1150.37 549.53 1148.84 549.57 1147.32 549.61 L 1147.87 548.48 C 1147.03 548.50 1145.35 548.53 1144.51 548.55 L 1144.65 547.23 C 1144.16 547.36 1143.18 547.63 1142.69 547.77 L 1142.03 542.02 L 1141.24 547.47 C 1141.05 547.06 1140.68 546.25 1140.49 545.84 C 1139.51 545.38 1138.66 544.76 1137.94 543.99 C 1133.37 541.37 1129.97 537.07 1126.59 533.10 C 1126.12 532.17 1125.67 531.24 1125.26 530.31 L 1124.33 530.37 C 1124.41 529.87 1124.59 528.85 1124.68 528.35 L 1123.15 528.37 C 1123.33 527.87 1123.67 526.89 1123.85 526.39 L 1122.46 526.50 C 1122.47 525.65 1122.50 523.97 1122.51 523.12 L 1121.34 523.68 C 1121.40 522.80 1121.52 521.03 1121.58 520.14 C 1121.32 520.28 1120.81 520.57 1120.55 520.71 C 1120.92 518.34 1118.73 514.38 1123.14 514.31 L 1119.58 514.73 C 1119.50 510.67 1119.52 506.61 1119.74 502.56 L 1120.48 502.83 C 1120.47 501.33 1120.49 499.85 1120.53 498.37 C 1120.79 498.49 1121.30 498.72 1121.55 498.83 C 1121.51 497.95 1121.43 496.20 1121.38 495.33 L 1122.51 495.88 C 1122.50 495.05 1122.48 493.39 1122.47 492.56 L 1123.12 492.70 C 1123.50 492.00 1124.27 490.60 1124.65 489.90 L 1124.17 488.86 C 1124.44 488.81 1124.98 488.71 1125.25 488.66 C 1125.87 486.09 1127.86 485.21 1131.20 486.01 L 1126.56 485.32 L 1127.09 485.02 C 1129.50 482.71 1131.42 479.84 1134.31 478.08 C 1134.53 477.46 1134.99 476.21 1135.22 475.59 L 1136.04 480.95 L 1136.71 474.96 C 1137.05 475.17 1137.75 475.60 1138.10 475.81 C 1138.33 474.38 1139.17 473.52 1140.60 473.22 C 1140.67 472.98 1140.82 472.51 1140.90 472.27 L 1142.10 472.79 C 1142.60 472.31 1143.61 471.37 1144.11 470.89 C 1145.36 470.66 1146.63 470.46 1147.91 470.29 L 1147.39 469.41 C 1148.23 469.45 1149.91 469.52 1150.75 469.56 C 1150.69 469.32 1150.56 468.83 1150.50 468.59 M 1154.51 489.96 C 1154.00 489.75 1152.97 489.33 1152.46 489.12 L 1152.43 490.57 C 1151.73 490.54 1150.34 490.48 1149.65 490.45 C 1149.47 491.14 1149.12 492.52 1148.95 493.21 L 1147.68 489.44 L 1147.58 494.25 L 1146.23 491.19 L 1146.68 494.62 L 1142.91 494.23 L 1146.20 495.39 L 1140.23 495.90 L 1145.36 496.83 C 1144.72 497.04 1143.45 497.46 1142.81 497.67 C 1142.52 498.88 1142.05 500.03 1141.40 501.10 L 1141.87 502.40 C 1141.51 502.36 1140.79 502.29 1140.42 502.25 C 1140.49 503.13 1140.63 504.88 1140.70 505.76 L 1139.52 505.12 C 1139.59 508.06 1139.59 511.01 1139.53 513.96 L 1140.66 513.17 C 1140.60 514.08 1140.49 515.92 1140.43 516.83 L 1141.11 516.50 C 1141.76 519.01 1143.19 521.18 1144.74 523.23 C 1144.99 523.62 1145.50 524.39 1145.75 524.78 L 1146.70 524.33 L 1146.26 525.89 L 1147.39 525.22 L 1147.88 530.14 L 1148.89 525.75 C 1149.10 526.53 1149.52 528.08 1149.73 528.86 C 1150.13 528.63 1150.92 528.18 1151.32 527.96 L 1151.96 533.01 L 1152.62 529.09 C 1153.12 529.26 1154.11 529.60 1154.61 529.77 L 1154.16 530.59 C 1155.08 530.52 1156.90 530.39 1157.82 530.32 L 1157.04 531.47 C 1160.00 531.39 1162.98 531.39 1165.96 531.48 L 1165.16 530.34 C 1166.07 530.39 1167.91 530.49 1168.82 530.54 L 1168.54 529.15 C 1168.96 529.30 1169.80 529.60 1170.22 529.75 C 1170.75 529.21 1171.81 528.14 1172.34 527.61 L 1172.99 532.16 C 1173.26 530.50 1173.81 527.16 1174.08 525.50 L 1175.11 530.58 L 1175.60 525.20 L 1178.96 526.02 L 1175.88 524.35 L 1180.77 524.40 L 1176.96 523.04 C 1177.66 522.87 1179.06 522.53 1179.75 522.36 C 1179.61 521.92 1179.33 521.05 1179.19 520.62 L 1180.77 520.60 C 1180.65 520.13 1180.42 519.18 1180.30 518.71 L 1181.81 518.52 C 1181.63 518.01 1181.27 516.98 1181.09 516.46 L 1182.40 516.88 C 1182.76 511.96 1182.75 507.04 1182.40 502.12 L 1181.02 502.54 C 1181.23 502.02 1181.66 500.97 1181.87 500.45 L 1180.35 500.42 C 1180.43 499.90 1180.59 498.85 1180.67 498.33 L 1179.03 498.37 C 1179.20 498.03 1179.52 497.34 1179.68 496.99 C 1177.63 496.02 1176.28 494.15 1175.04 492.34 L 1173.50 492.86 L 1176.83 488.59 L 1172.82 492.04 C 1172.62 490.50 1172.21 487.42 1172.01 485.88 L 1171.23 491.52 C 1171.00 490.93 1170.53 489.74 1170.29 489.14 C 1169.84 489.37 1168.93 489.82 1168.48 490.05 L 1168.88 488.60 C 1163.96 488.25 1159.04 488.23 1154.13 488.60 L 1154.51 489.96 Z" />
<path fill="#ffffff" opacity="1.00" d=" M 1206.61 467.56 C 1218.96 467.61 1231.31 467.62 1243.66 467.61 L 1243.14 468.53 C 1244.66 468.47 1246.19 468.41 1247.74 468.37 L 1247.05 469.36 C 1250.35 468.71 1251.65 470.24 1250.94 473.96 L 1251.95 469.24 C 1252.22 470.65 1252.75 473.48 1253.01 474.89 L 1253.78 470.56 C 1253.99 471.13 1254.41 472.27 1254.62 472.84 L 1255.35 472.15 L 1255.93 477.53 L 1256.82 472.70 C 1257.03 473.33 1257.45 474.59 1257.66 475.21 C 1258.79 475.90 1259.90 476.63 1261.07 477.32 L 1257.36 477.97 C 1258.76 478.25 1261.55 478.81 1262.95 479.09 L 1257.65 480.06 C 1261.49 478.91 1263.89 480.46 1263.72 483.84 L 1264.95 483.53 C 1264.74 484.04 1264.33 485.05 1264.12 485.56 L 1265.41 485.52 C 1265.49 487.32 1265.53 489.11 1265.57 490.93 L 1266.41 490.28 C 1266.57 510.69 1266.35 531.11 1266.53 551.53 C 1259.80 551.44 1253.06 551.38 1246.34 551.56 C 1246.56 532.09 1246.28 512.61 1246.49 493.14 L 1245.49 493.59 C 1245.49 492.91 1245.51 491.54 1245.52 490.86 C 1244.30 490.48 1243.50 489.69 1243.11 488.50 C 1242.41 488.51 1241.01 488.52 1240.31 488.53 L 1240.93 487.52 C 1236.40 487.60 1231.87 487.64 1227.36 487.50 C 1227.31 508.83 1227.28 530.16 1227.37 551.50 C 1220.44 551.45 1213.52 551.44 1206.60 551.50 C 1206.69 523.52 1206.67 495.54 1206.61 467.56 Z" />
<path fill="#ffffff" opacity="1.00" d=" M 1030.38 497.61 C 1037.11 497.73 1043.85 497.72 1050.59 497.62 C 1050.48 507.72 1050.61 517.82 1050.53 527.92 L 1051.83 527.19 L 1051.34 528.77 L 1052.92 528.71 C 1052.71 529.16 1052.31 530.06 1052.11 530.51 C 1053.00 530.49 1054.77 530.44 1055.66 530.42 L 1055.08 531.48 C 1066.62 531.27 1078.16 531.60 1089.70 531.30 C 1089.49 538.05 1089.55 544.81 1089.66 551.56 C 1077.49 551.38 1065.32 551.46 1053.15 551.49 L 1053.95 550.52 C 1052.04 550.55 1050.14 550.56 1048.25 550.56 C 1048.41 550.36 1048.73 549.97 1048.89 549.78 C 1047.58 549.57 1046.31 549.27 1045.07 548.86 C 1044.60 548.59 1043.65 548.03 1043.18 547.76 C 1041.89 546.86 1040.40 545.99 1040.10 544.32 C 1039.68 544.47 1038.84 544.78 1038.41 544.94 L 1038.89 543.76 L 1037.75 543.32 L 1037.29 542.27 L 1036.10 542.42 C 1036.25 542.03 1036.55 541.26 1036.71 540.88 C 1035.29 540.64 1034.45 539.84 1034.16 538.46 L 1032.39 537.84 C 1033.51 537.62 1035.74 537.19 1036.86 536.97 L 1032.60 536.35 C 1032.53 535.81 1032.40 534.72 1032.33 534.17 L 1031.43 534.54 C 1031.46 533.70 1031.51 532.01 1031.54 531.17 L 1030.61 531.58 C 1030.17 520.26 1030.57 508.93 1030.38 497.61 Z" />
<path fill="#ffffff" opacity="1.00" d=" M 383.23 528.35 L 383.71 527.88 C 384.74 528.73 385.79 529.59 386.87 530.40 L 382.80 531.15 L 388.20 531.50 L 384.81 532.77 L 388.65 532.38 C 388.59 532.99 388.46 534.21 388.39 534.82 C 388.80 534.68 389.60 534.41 390.01 534.27 C 390.61 535.28 391.20 536.31 391.79 537.35 C 392.42 537.55 393.67 537.95 394.29 538.15 L 389.40 539.14 L 395.16 539.57 L 391.57 541.27 L 396.37 540.06 L 393.16 541.97 L 396.57 541.24 C 396.54 541.88 396.47 543.16 396.43 543.80 C 396.82 543.67 397.60 543.42 397.99 543.29 C 398.58 544.18 399.16 545.09 399.73 546.01 C 398.81 546.29 397.89 546.55 396.97 546.79 C 396.17 547.92 395.05 548.75 394.07 549.70 L 393.53 549.18 C 393.35 549.73 392.98 550.83 392.79 551.39 L 391.95 545.98 L 391.32 551.83 L 390.58 551.16 C 390.38 551.73 389.98 552.87 389.79 553.43 L 388.96 547.78 L 388.32 553.93 L 387.58 553.15 C 387.38 553.73 386.99 554.91 386.79 555.49 L 385.96 549.79 L 385.32 556.02 L 384.62 555.10 C 384.41 555.72 383.99 556.95 383.78 557.57 L 382.96 551.55 L 382.30 558.06 C 381.93 557.83 381.20 557.37 380.83 557.14 C 380.96 559.15 379.44 559.55 377.87 559.76 C 377.62 560.89 376.96 561.44 375.89 561.42 C 373.34 561.61 370.78 561.48 368.23 561.50 L 368.87 560.48 C 367.39 560.52 365.91 560.56 364.43 560.60 L 364.71 559.95 C 363.56 559.29 362.48 558.54 361.41 557.80 C 361.44 555.12 361.29 552.43 361.57 549.76 C 362.97 549.58 365.79 549.20 367.20 549.02 L 362.77 548.31 C 363.98 547.65 365.17 546.96 366.38 546.28 C 366.56 545.66 366.90 544.43 367.08 543.81 L 368.35 547.70 L 368.40 543.17 L 369.37 543.73 C 369.54 543.00 369.89 541.53 370.06 540.80 L 371.34 544.79 L 371.40 540.06 L 372.11 540.76 C 372.43 539.49 373.18 538.60 374.37 538.09 C 374.57 537.51 374.96 536.36 375.15 535.78 L 376.17 540.59 L 376.52 534.80 L 378.35 538.49 L 376.98 533.57 L 379.27 536.88 L 378.04 533.32 L 379.74 533.75 L 379.36 532.03 L 382.56 533.17 L 379.65 530.78 L 384.29 532.53 L 380.53 529.92 L 385.03 531.04 L 381.48 529.02 L 385.31 529.79 L 383.23 528.35 Z" />
</g>
</svg>
